<svg width="757" height="773" viewBox="0 0 757 773" fill="none" xmlns="http://www.w3.org/2000/svg">
<path d="M757 373.5C757 453.014 757 492.771 748.209 525.378C724.568 613.069 656.069 681.568 568.378 705.209C535.771 714 496.014 714 416.5 714H340.5C260.986 714 221.229 714 188.622 705.209C100.931 681.568 32.4324 613.069 8.79083 525.378C0 492.771 0 453.014 0 373.5C0 293.986 0 254.229 8.79083 221.622C32.4324 133.931 100.931 65.4324 188.622 41.7908C221.229 33 260.986 33 340.5 33H416.5C496.014 33 535.771 33 568.378 41.7908C656.069 65.4324 724.568 133.931 748.209 221.622C757 254.229 757 293.986 757 373.5Z" fill="url(#paint0_linear_0_1)"/>
<mask id="mask0_0_1" style="mask-type:alpha" maskUnits="userSpaceOnUse" x="0" y="0" width="757" height="773">
<path d="M757 394.5C757 509.561 757 567.092 738.774 612.674C712.855 677.495 661.495 728.855 596.674 754.774C551.092 773 493.561 773 378.5 773C263.439 773 205.908 773 160.326 754.774C95.5051 728.855 44.145 677.495 18.2264 612.674C0 567.092 0 509.561 0 394.5V378.5C0 263.439 0 205.908 18.2264 160.326C44.145 95.5051 95.5051 44.145 160.326 18.2264C205.908 0 263.439 0 378.5 0C493.561 0 551.092 0 596.674 18.2264C661.495 44.145 712.855 95.5051 738.774 160.326C757 205.908 757 263.439 757 378.5V394.5Z" fill="#C4C4C4"/>
</mask>
<g mask="url(#mask0_0_1)">
</g>
<path d="M562.282 523.662C562.32 523.407 562.384 523.16 562.473 522.926C562.699 522.231 562.988 521.571 563.335 520.96C564.599 518.65 566.467 516.966 568.617 516.201C570.103 515.663 571.669 515.565 573.191 515.915C574.94 516.344 576.568 517.344 577.91 518.813C579.377 520.46 580.42 522.619 580.904 525.013C581.448 527.592 581.317 530.322 580.53 532.8C579.743 535.279 578.342 537.375 576.533 538.779C574.856 540.093 572.904 540.746 570.928 540.655C569.146 540.567 567.415 539.888 565.91 538.689C564.612 537.643 563.529 536.229 562.749 534.561C561.621 532.143 561.198 529.309 561.551 526.544C561.635 525.804 561.788 525.078 562.006 524.382C562.07 524.13 562.159 523.888 562.27 523.662C562.066 524.651 561.906 525.653 561.791 526.664C561.547 529.347 562.032 532.055 563.168 534.35C563.988 536.041 565.134 537.445 566.5 538.434C567.867 539.423 569.41 539.965 570.988 540.01C572.846 540.082 574.679 539.449 576.245 538.193C577.477 537.221 578.512 535.903 579.269 534.343C580.026 532.784 580.484 531.026 580.607 529.207C580.73 527.388 580.515 525.559 579.978 523.862C579.442 522.165 578.598 520.647 577.515 519.428C576.255 518.024 574.723 517.061 573.072 516.636C571.632 516.262 570.142 516.324 568.725 516.816C566.646 517.515 564.813 519.063 563.515 521.215C562.629 522.611 562.342 523.707 562.282 523.662Z" fill="#E0E0E0"/>
<path d="M553.252 511.998H552.916L551.887 511.818L547.839 511.097L547.947 511.022L544.665 521.531L544.605 521.305C545.983 522.461 547.504 523.767 549.12 525.148L549.216 525.224V525.359C548.99 527.796 549.027 530.26 549.324 532.685V532.835L549.228 532.925L544.821 536.978L544.893 536.633C546.031 539.905 547.228 543.388 548.486 547.036L548.21 546.856L553.575 545.58H553.731L553.827 545.73C555.035 547.645 556.44 549.351 558.006 550.804L558.138 550.924V551.134C557.874 553.221 557.587 555.533 557.3 557.89L557.132 557.515L565.515 561.688L565.167 561.823C566.126 560.067 567.179 558.13 568.257 556.178L568.353 555.983H568.533C570.464 556.27 572.417 556.234 574.341 555.878H574.52L574.628 556.073L577.85 561.598L577.478 561.478L585.778 556.974L585.598 557.394C585.275 555.278 584.939 552.981 584.592 550.669V550.429L584.748 550.294C586.273 548.781 587.633 547.024 588.795 545.07L589.095 544.919H589.25H589.43L589.765 544.994L590.448 545.13L591.801 545.385L594.484 545.925L594.148 546.165C595.274 542.603 596.388 539.1 597.49 535.657L597.597 536.122L593.107 532.234L592.951 532.114V531.874C593.175 529.453 593.147 527.005 592.867 524.593V524.368L593.011 524.233L597.43 520.209L597.334 520.66L593.741 510.256L594.053 510.467L588.688 511.713H588.52L588.412 511.547C587.214 509.627 585.816 507.915 584.257 506.458L584.125 506.338V506.128C584.412 503.816 584.7 501.624 584.975 499.373L585.143 499.718L576.76 495.515L577.047 495.409C575.958 497.391 574.94 499.253 573.946 501.039L573.874 501.174H573.718C571.783 500.849 569.821 500.849 567.886 501.174H567.754L567.682 501.054C566.485 499.027 565.479 497.211 564.485 495.5L564.712 495.575L556.413 500.093L556.497 499.898L557.455 506.639V506.714C556.271 507.874 555.18 509.176 554.198 510.602L553.491 511.638C553.425 511.766 553.344 511.882 553.252 511.983L553.455 511.608C553.599 511.352 553.815 510.992 554.126 510.512C555.074 509.072 556.137 507.759 557.3 506.593V506.714C557.012 504.882 556.677 502.675 556.258 500.003V499.853H556.365L564.641 495.349L564.784 495.274L564.868 495.424L568.102 500.934L567.91 500.844C569.891 500.453 571.906 500.407 573.898 500.709L573.682 500.829L576.76 495.169L576.868 494.974L577.047 495.064L585.43 499.223L585.622 499.328V499.583C585.346 501.775 585.071 504.086 584.784 506.338L584.676 506.023C586.284 507.505 587.726 509.253 588.963 511.217L588.688 511.097L594.065 509.836H594.28L594.376 510.106L597.969 520.495L598.064 520.765L597.873 520.945L593.466 524.983L593.586 524.623C593.879 527.109 593.908 529.633 593.669 532.129L593.538 531.769L598.041 535.642L598.244 535.822L598.16 536.107C597.059 539.56 595.945 543.063 594.819 546.616L594.735 546.901H594.484L591.789 546.376L590.448 546.105L589.765 545.97H589.43H589.25H589.095C589.226 545.97 588.795 546.135 589.394 545.82C588.202 547.827 586.805 549.629 585.239 551.179L585.346 550.789C585.694 553.101 586.029 555.398 586.352 557.53V557.83L586.125 557.95L577.826 562.454L577.61 562.589L577.466 562.333L574.245 556.794L574.532 556.944C572.549 557.318 570.535 557.353 568.545 557.049L568.82 556.899L565.73 562.529L565.599 562.769L565.383 562.664L557 558.46L556.797 558.355V558.085C557.096 555.728 557.383 553.416 557.659 551.33L557.755 551.645C556.155 550.155 554.721 548.403 553.491 546.436L553.743 546.541L548.378 547.787H548.174L548.102 547.562L544.51 537.143L544.438 536.933L544.581 536.813L549.012 532.79L548.929 533.045C548.662 530.554 548.662 528.03 548.929 525.539L549 525.749L544.51 521.846L544.414 521.756V521.621L547.803 511.112V511.022H547.875L551.863 511.878L552.893 512.118L553.252 511.998Z" fill="#E0E0E0"/>
<path d="M562.279 523.663C562.279 523.663 562.423 523.197 562.806 522.327C563.371 521.047 564.118 519.907 565.01 518.964C566.415 517.499 568.123 516.566 569.935 516.272C571.748 515.978 573.589 516.336 575.245 517.304C576.902 518.272 578.304 519.81 579.29 521.738C580.276 523.667 580.804 525.908 580.813 528.198C580.821 530.489 580.311 532.736 579.34 534.677C578.369 536.617 576.978 538.172 575.33 539.16C573.681 540.148 571.842 540.528 570.028 540.256C568.213 539.984 566.498 539.071 565.081 537.624C563.885 536.394 562.932 534.834 562.296 533.066C561.66 531.297 561.359 529.369 561.417 527.431C561.444 526.77 561.509 526.113 561.608 525.464C561.608 525.149 561.716 524.819 561.788 524.503L561.896 524.023V523.798V523.693C561.903 523.766 561.925 523.835 561.961 523.893C561.997 523.951 562.045 523.996 562.099 524.023L562.471 523.858C562.286 524.34 562.137 524.842 562.028 525.359C561.496 527.809 561.622 530.409 562.387 532.76C563.12 535.047 564.4 536.992 566.051 538.329C567.193 539.262 568.481 539.879 569.828 540.138C571.175 540.398 572.551 540.294 573.864 539.833C575.176 539.373 576.395 538.567 577.44 537.469C578.484 536.371 579.329 535.006 579.919 533.466C580.934 530.874 581.179 527.914 580.611 525.116C580.043 522.318 578.698 519.866 576.817 518.198C575.054 516.648 572.931 515.874 570.78 515.996C568.628 516.119 566.57 517.13 564.926 518.874C564.026 519.825 563.279 520.982 562.722 522.282C562.531 522.717 562.411 523.062 562.327 523.302C562.243 523.543 562.207 523.678 562.207 523.663C562.206 523.534 562.226 523.406 562.267 523.287C562.358 522.915 562.474 522.553 562.614 522.206C563.138 520.853 563.871 519.644 564.77 518.649C566.445 516.796 568.566 515.701 570.795 515.538C573.025 515.375 575.234 516.153 577.069 517.748C578.337 518.854 579.387 520.308 580.14 521.998C580.893 523.689 581.33 525.572 581.416 527.506C581.506 529.67 581.16 531.828 580.41 533.781C579.603 535.854 578.361 537.614 576.817 538.87C575.173 540.244 573.244 540.986 571.267 541.005C569.291 541.024 567.353 540.318 565.692 538.975C563.93 537.559 562.561 535.493 561.776 533.06C560.955 530.554 560.82 527.777 561.393 525.164C561.512 524.578 561.681 524.009 561.896 523.467L562.016 523.197L562.267 523.302C562.483 523.392 562.507 523.753 562.483 523.678V523.783V523.873V524.008V524.248L562.375 524.698C562.315 524.999 562.255 525.314 562.207 525.614C562.118 526.225 562.058 526.841 562.028 527.461C561.994 528.691 562.107 529.92 562.363 531.109C562.863 533.397 563.913 535.437 565.37 536.952C566.826 538.466 568.62 539.382 570.506 539.575C572.491 539.767 574.472 539.147 576.151 537.807C577.831 536.467 579.118 534.481 579.82 532.146C580.522 529.811 580.6 527.253 580.044 524.857C579.487 522.461 578.326 520.357 576.734 518.859C574.815 517.061 572.418 516.255 570.039 516.607C568.249 516.874 566.556 517.769 565.153 519.189C564.263 520.093 563.502 521.179 562.902 522.402C562.495 523.227 562.327 523.723 562.279 523.663Z" fill="#E0E0E0"/>
<path d="M553.252 511.997L547.791 510.902H547.875C547 513.619 545.863 517.222 544.45 521.635V521.47L549.036 525.433L548.845 525.628L548.773 525.433H549.024C548.79 527.894 548.818 530.383 549.108 532.834H548.821L548.904 532.609L549.12 532.834L544.581 536.978V536.737L548.294 547.516L548.09 547.381L553.635 546.09V546.555L553.407 546.45L553.635 546.075C554.856 548.023 556.277 549.76 557.862 551.239L557.551 551.539L557.455 551.254H557.85C557.575 553.386 557.275 555.758 556.964 558.25L556.844 557.965L565.61 562.333L565.347 562.438L568.544 556.583L568.832 557.019L568.58 557.154L568.52 556.598C570.479 556.892 572.461 556.856 574.412 556.493L574.353 557.064L574.101 556.929L574.388 556.478L577.73 562.228L577.43 562.123L586.137 557.424L585.981 557.769C585.658 555.638 585.298 553.266 584.939 550.774H585.442L585.346 551.104L584.927 550.729C586.484 549.197 587.87 547.41 589.047 545.414L589.358 545.94L589.095 546.075L589.035 545.429L594.639 546.54L594.34 546.75C595.43 543.343 596.627 539.545 597.837 535.702L597.944 536.122L593.25 532.099L593.669 531.663L593.789 531.979L593.25 532.084C593.48 529.632 593.448 527.153 593.154 524.713L593.705 524.803L593.597 525.118L593.166 524.683L597.741 520.494L597.645 520.93C596.448 517.552 595.25 513.829 593.897 510.061L594.22 510.271L588.651 511.592L588.711 510.872L588.951 510.977L588.604 511.562C587.386 509.628 585.969 507.907 584.388 506.443L584.843 505.993L584.939 506.278L584.364 506.368C584.628 504.191 584.927 501.789 585.226 499.372L585.418 499.793L576.688 495.469L577.047 495.319C576.065 497.135 574.975 499.147 573.874 501.144L573.502 500.573L573.682 500.468L573.778 501.204C571.83 500.92 569.86 500.966 567.922 501.339L567.994 500.603L568.161 500.693L567.79 501.279L564.485 495.619L564.856 495.754L556.365 500.393L556.545 499.958C556.88 502.12 557.239 504.461 557.599 506.803H557V506.698L557.491 507.134C556.147 508.44 554.94 509.953 553.898 511.637L553.647 512.043C553.647 512.043 553.647 512.043 553.587 512.043H553.491C553.575 512.043 553.204 511.637 553.072 511.817H553.012L553.551 511.022C553.91 510.466 554.305 509.926 554.689 509.415C555.479 508.399 556.323 507.451 557.216 506.578L557.108 506.953C556.772 504.657 556.449 502.45 556.126 500.153L556.713 500.273L556.641 500.438L556.245 499.898L564.557 495.469V496.19H564.365L564.688 495.589C565.79 497.481 566.88 499.367 567.958 501.249L567.658 501.084C569.698 500.706 571.769 500.681 573.814 501.009L573.526 501.159L576.688 495.409L577.035 495.995L576.784 496.085V495.364L585.167 499.582L584.795 500.123L584.652 499.808L585.214 499.673C584.915 502.014 584.628 504.326 584.328 506.608L584.208 506.248C585.883 507.792 587.379 509.621 588.651 511.682L588.352 511.547L593.873 510.271L593.789 510.962L593.514 510.781L593.921 510.301L597.513 520.704H596.962L597.046 520.314L597.501 520.704L592.951 524.848L593.07 524.503C593.387 527.082 593.411 529.705 593.142 532.294L593.023 531.964L597.657 535.957L597.226 536.347L597.13 535.942H597.657C596.519 539.545 595.406 543.043 594.316 546.45L593.921 546.03L594.22 545.82L594.316 546.45L588.759 545.354L589.011 545.219C587.782 547.326 586.322 549.206 584.676 550.804L584.771 550.489L585.801 557.424L585.322 557.334L585.478 556.944L585.813 557.394L577.502 561.898V561.312L577.825 561.432L577.562 561.913L574.257 556.208L574.484 556.328C572.431 556.729 570.342 556.765 568.281 556.433L568.497 556.313L565.335 561.973L565.083 561.537L565.395 561.417V561.958L557.012 557.769L557.275 557.394L557.431 557.724L557.036 557.814C557.359 555.262 557.635 553.041 557.91 550.879L557.982 551.119C556.319 549.584 554.833 547.771 553.563 545.73L553.755 545.82L548.246 547.111L548.306 546.675L548.545 546.841L548.294 547.126L544.701 536.737H545L544.941 537.038L544.689 536.812L549.192 532.699L549.132 532.879C548.825 530.354 548.797 527.788 549.048 525.253V525.403L544.462 521.47L544.629 521.305L544.689 521.515H544.473L547.803 511.007L547.898 511.112H547.803V510.947L553.204 511.982C552.754 511.974 552.305 511.919 551.862 511.817L547.791 511.127H547.587L547.767 511.007L547.863 510.932L548.03 510.812L547.958 511.037C547.168 513.634 546.126 517.042 544.701 521.545L544.593 521.92L544.497 521.545V521.335L544.402 520.945L544.665 521.17L549.264 525.073H549.336V525.163C549.107 527.661 549.147 530.185 549.455 532.669V532.789H549.383L544.893 536.933L544.521 537.278L544.641 536.722L544.713 536.422L544.833 535.867L545.012 536.392C546.09 539.515 547.252 542.847 548.605 546.765L548.821 547.366L548.366 547.066L548.114 546.901L547.659 546.6L548.174 546.48L553.671 545.174H553.79L553.862 545.279C555.106 547.288 556.569 549.067 558.209 550.564L558.317 550.654V550.804L557.467 557.739L557.371 558.49L557.072 557.829L556.916 557.499L556.617 556.839L557.18 557.124L565.562 561.282L566.161 561.582L565.539 561.808L565.239 561.928L564.616 562.168L564.988 561.507L568.149 555.683L568.233 555.533H568.377C570.396 555.838 572.439 555.793 574.448 555.397H574.592L574.676 555.548L577.993 561.237L578.412 561.958L577.73 561.733L577.406 561.612L576.724 561.387L577.37 561.027L585.67 556.523L586.34 556.148L585.993 556.959L585.837 557.349L585.49 558.16L585.346 557.259L584.316 550.323V550.113L584.448 549.993C586.057 548.428 587.484 546.588 588.687 544.529L588.783 544.364H588.939L594.496 545.459L595.274 545.61L594.591 546.09L594.292 546.315L593.609 546.796L593.897 545.88C594.987 542.457 596.1 538.959 597.238 535.371L597.525 534.441L597.765 535.401L597.861 535.807L598.1 536.782L597.442 536.212L592.795 532.219L592.651 532.099V531.873C592.904 529.349 592.876 526.792 592.567 524.277V524.067L592.711 523.932L597.25 519.774L597.921 519.173L597.705 520.179C597.705 520.299 597.705 520.434 597.621 520.569L597.394 521.59L597.07 520.614C595.873 517.192 594.675 513.724 593.478 510.211L593.142 509.25L593.885 509.746L594.172 509.926L594.915 510.436L594.076 510.631L588.568 511.907H588.388L588.268 511.727C587.035 509.717 585.58 507.937 583.945 506.443L583.801 506.308V506.083C584.101 503.786 584.388 501.474 584.688 499.132L584.819 498.066L585.25 499.012L585.394 499.327L585.825 500.273L585.011 499.868L576.628 495.664L575.814 495.259L576.652 494.929L576.903 494.839L577.742 494.523L577.239 495.424L574.077 501.189L573.969 501.384H573.79C571.803 501.039 569.788 501.039 567.802 501.384H567.61L567.503 501.189C566.425 499.317 565.335 497.431 564.233 495.529L563.718 494.643L564.568 494.929H564.772L565.634 495.229L564.808 495.664L556.497 500.168L555.683 500.603L556.102 499.627L556.174 499.447L556.593 498.457L556.748 499.567C557.072 501.819 557.395 504.071 557.73 506.368V506.608L557.575 506.743C556.706 507.591 555.886 508.514 555.12 509.505C554.737 510.016 554.365 510.526 554.006 511.007L553.455 511.832V511.907H553.383C553.264 512.088 552.88 511.667 552.976 511.682C552.971 511.607 552.971 511.532 552.976 511.457C553.02 511.305 553.076 511.159 553.144 511.022L553.419 510.601C554.453 508.864 555.66 507.3 557.012 505.948L557.898 505.047L557.503 506.383V506.488L557.12 507.794L556.904 506.428C556.545 504.086 556.186 501.744 555.85 499.582V499.282L556.078 499.147L564.58 494.508L564.808 494.388L564.952 494.643L568.257 500.288L568.916 501.414L567.886 500.874L567.718 500.783L566.7 500.258L567.79 500.048C569.773 499.679 571.786 499.633 573.778 499.913L574.879 500.078L573.862 500.648L573.682 500.753L572.676 501.324L573.299 500.183L576.472 494.358L576.604 494.103L576.843 494.223L585.574 498.547L585.789 498.667V498.967C585.49 501.384 585.19 503.786 584.927 505.963L584.759 507.299L584.352 506.038L584.256 505.752L583.849 504.506L584.711 505.302C586.335 506.812 587.793 508.584 589.047 510.571L589.705 511.637L588.699 511.157L588.46 511.052L587.454 510.571L588.508 510.331L594.076 509.025H594.316L594.412 509.295L598.148 520.179L598.244 520.449L598.052 520.614L593.466 524.803L592.627 525.568L593.034 524.367L593.142 524.052L593.537 522.866L593.693 524.142C593.985 526.629 594.013 529.153 593.777 531.648L593.657 532.909L593.238 531.753L593.118 531.423L592.699 530.267L593.537 530.988L598.22 535.011L598.412 535.176L598.328 535.431L594.819 546.48L594.735 546.735H594.519L588.915 545.625L587.957 545.429L588.855 544.979L589.118 544.844L590.005 544.379L589.43 545.354C588.225 547.385 586.812 549.207 585.226 550.774L584.484 551.494L584.807 550.398L584.915 550.053L585.25 548.957L585.418 550.113C585.777 552.56 586.137 554.977 586.448 557.109V557.364L586.268 557.469L577.562 562.153L577.382 562.258L577.263 562.048L573.921 556.298L573.418 555.412L574.209 555.833L574.472 555.968L575.263 556.388L574.412 556.553C572.428 556.915 570.415 556.946 568.425 556.643L567.598 556.508L568.353 556.088L568.604 555.938L569.371 555.503L568.892 556.373C567.766 558.43 566.652 560.442 565.682 562.228L565.574 562.408L565.407 562.318L556.641 557.919L556.485 557.844V557.634C556.808 555.172 557.108 552.755 557.383 550.639L557.503 549.738L557.778 550.579L557.862 550.864L558.138 551.704L557.563 551.164C555.948 549.657 554.502 547.885 553.264 545.895L552.844 545.219L553.491 545.519L553.707 545.625L554.353 545.94L553.683 546.09L548.138 547.351H547.994L547.934 547.186C546.641 543.373 545.408 539.77 544.27 536.392L544.21 536.242L544.318 536.137L548.881 532.024L549.3 531.633L549.096 532.249L549.024 532.459L548.821 533.074L548.749 532.414C548.464 529.926 548.444 527.402 548.689 524.908L548.749 524.322L548.94 524.848L549.012 525.043L549.204 525.583L548.821 525.253L544.246 521.26L544.174 521.185V521.08L547.671 510.391L551.743 511.292L552.773 511.547L553.252 511.997Z" fill="#E0E0E0"/>
<path d="M272.808 559.511C273.187 558.576 273.662 557.708 274.221 556.929L273.419 554.212L276.628 551.615L278.281 553.626C279.058 553.313 279.862 553.121 280.676 553.056L281.646 550.429L285.383 551.435V554.332C286.133 554.796 286.827 555.392 287.442 556.103L289.61 555.097L291.694 559.121L290.077 561.192C290.333 562.19 290.486 563.224 290.532 564.27L292.628 565.471L291.825 570.17H289.526C289.148 571.104 288.673 571.973 288.113 572.752L288.903 575.469L285.778 578.156L284.125 576.144C283.349 576.459 282.544 576.651 281.73 576.715L280.76 579.342L277.012 578.336V575.439C276.267 574.97 275.578 574.374 274.964 573.667L272.784 574.673L270.641 570.65L272.245 568.578C271.99 567.581 271.838 566.547 271.79 565.501L269.695 564.285L270.497 559.601H272.808V559.511ZM277.227 563.564C277.056 564.56 277.124 565.597 277.422 566.545C277.721 567.492 278.238 568.307 278.906 568.887C279.575 569.466 280.365 569.784 281.178 569.8C281.991 569.816 282.789 569.529 283.472 568.976C284.154 568.423 284.691 567.629 285.013 566.694C285.335 565.758 285.429 564.724 285.282 563.722C285.136 562.72 284.755 561.795 284.189 561.064C283.623 560.333 282.896 559.829 282.101 559.616C281.038 559.335 279.929 559.592 279.016 560.332C278.103 561.071 277.46 562.233 277.227 563.564Z" fill="#E0E0E0"/>
<path d="M277.224 563.564C277.27 563.14 277.371 562.729 277.524 562.348C277.921 561.277 278.603 560.412 279.452 559.901C280.043 559.548 280.69 559.368 281.344 559.375C282.095 559.397 282.827 559.672 283.464 560.171C283.811 560.432 284.122 560.762 284.386 561.147C284.675 561.535 284.91 561.981 285.08 562.468C285.446 563.494 285.547 564.639 285.368 565.74C285.178 566.84 284.712 567.835 284.038 568.578C283.727 568.937 283.371 569.231 282.985 569.448C282.604 569.662 282.201 569.804 281.787 569.869C281.043 569.985 280.287 569.856 279.595 569.493C278.99 569.16 278.459 568.644 278.051 567.992C277.439 567.094 277.092 565.96 277.069 564.78C277.056 564.348 277.101 563.917 277.2 563.504C277.2 563.504 277.2 563.954 277.2 564.765C277.253 565.907 277.607 566.994 278.206 567.857C278.613 568.45 279.126 568.913 279.703 569.208C280.368 569.54 281.089 569.654 281.799 569.538C282.18 569.468 282.55 569.332 282.901 569.133C283.264 568.924 283.599 568.645 283.895 568.307C284.534 567.605 284.974 566.664 285.151 565.622C285.328 564.58 285.232 563.495 284.877 562.528C284.717 562.066 284.499 561.64 284.23 561.267C283.981 560.905 283.69 560.591 283.368 560.336C282.76 559.859 282.061 559.594 281.344 559.57C280.577 559.545 279.821 559.792 279.161 560.284C278.502 560.775 277.968 561.491 277.62 562.348C277.308 563.143 277.26 563.579 277.224 563.564Z" fill="#E0E0E0"/>
<path d="M272.808 559.511H272.221H270.497C270.293 560.712 270.042 562.288 269.718 564.194L271.826 565.395C271.879 566.417 272.036 567.426 272.293 568.398L270.736 570.65V570.515C271.383 571.791 272.09 573.127 272.82 574.538H272.712L274.88 573.532C275.493 574.229 276.177 574.82 276.916 575.288V575.363C276.916 576.264 276.916 577.255 276.916 578.261L276.832 578.141L280.58 579.131L280.448 579.207L281.418 576.579V576.504H281.49C282.305 576.45 283.11 576.263 283.885 575.949H283.957L285.61 577.976H285.466L288.676 575.378V575.544L287.873 572.826V572.736C288.429 571.973 288.9 571.12 289.274 570.199V570.109H289.334H291.646L291.538 570.229C291.801 568.638 292.077 567.077 292.328 565.53L292.4 565.696L290.304 564.48H290.233V564.39C290.193 563.368 290.044 562.358 289.789 561.387V561.297C290.34 560.607 290.879 559.916 291.406 559.225V559.406C290.7 558.024 290.005 556.688 289.322 555.382H289.454L287.287 556.388H287.227C286.615 555.696 285.935 555.106 285.203 554.632H285.143V554.557C285.143 553.566 285.143 552.59 285.143 551.659L285.215 551.779L281.478 550.774L281.586 550.699L280.604 553.326C279.79 553.382 278.985 553.569 278.209 553.881C277.61 553.145 277.071 552.47 276.556 551.854H276.724L273.515 554.452V554.136L274.305 556.853C273.884 557.434 273.508 558.062 273.179 558.73L272.94 559.24L272.868 559.406C272.881 559.342 272.901 559.281 272.928 559.225L273.143 558.715C273.459 558.031 273.828 557.387 274.245 556.793C274.018 556.058 273.754 555.172 273.431 554.091C274.329 553.341 275.383 552.47 276.628 551.464L278.293 553.491H278.209C279.007 553.158 279.836 552.961 280.676 552.905H280.604C280.916 552.08 281.239 551.209 281.574 550.278V550.203H281.646L285.394 551.194H285.466V551.299V554.181V554.076C286.221 554.554 286.921 555.155 287.55 555.863H287.442L289.61 554.857H289.694V554.947C290.376 556.253 291.071 557.589 291.777 558.97L291.837 559.06H291.765L290.161 561.147V560.997C290.427 562.001 290.58 563.047 290.616 564.104L290.556 563.984L292.652 565.2H292.735V565.32C292.484 566.822 292.209 568.413 291.945 570.004V570.109H291.861H289.55L289.646 570.034C289.268 570.978 288.788 571.851 288.221 572.631V572.481C288.496 573.412 288.76 574.343 289.011 575.198V575.318H288.927L285.849 578.156L285.766 578.231L285.706 578.141L284.053 576.129H284.161C283.359 576.46 282.525 576.652 281.682 576.699L281.778 576.624L280.808 579.252V579.342H280.724L276.988 578.336H276.904V578.231C276.904 577.225 276.904 576.234 276.904 575.333V575.453C276.15 574.975 275.453 574.369 274.832 573.652H274.928L272.76 574.643H272.688L270.569 570.65V570.575L272.185 568.503V568.608C271.928 567.606 271.779 566.566 271.742 565.515V565.591L269.646 564.36C269.97 562.453 270.245 560.877 270.461 559.691H272.856L272.808 559.511Z" fill="#E0E0E0"/>
<path d="M614.889 524.443C615.383 523.601 615.967 522.848 616.625 522.206L616.206 519.354L619.715 517.462L621.08 519.804C621.906 519.661 622.745 519.661 623.571 519.804L624.876 517.417L628.469 519.188L628.11 522.041C628.782 522.664 629.386 523.396 629.906 524.217L632.169 523.692L633.69 528.091L631.822 529.802C631.931 530.838 631.931 531.888 631.822 532.924L633.726 534.561L632.313 539.064L630.026 538.614C629.525 539.449 628.942 540.201 628.289 540.851L628.709 543.703L625.212 545.505L623.858 543.163C623.032 543.299 622.194 543.299 621.367 543.163L620.05 545.55L616.457 543.778L616.817 540.911C616.145 540.291 615.545 539.559 615.032 538.734L612.757 539.275L611.248 534.861L613.104 533.165C612.996 532.128 612.996 531.079 613.104 530.042L611.2 528.406L612.613 523.902L614.901 524.353L614.889 524.443ZM618.709 529.382C618.412 530.325 618.344 531.358 618.515 532.35C618.686 533.342 619.087 534.248 619.668 534.954C620.249 535.66 620.984 536.134 621.78 536.317C622.576 536.5 623.398 536.383 624.141 535.981C624.884 535.579 625.515 534.91 625.956 534.059C626.396 533.207 626.625 532.212 626.614 531.197C626.603 530.183 626.352 529.195 625.894 528.359C625.435 527.523 624.79 526.876 624.038 526.499C623.537 526.249 623.002 526.124 622.463 526.133C621.923 526.143 621.391 526.285 620.896 526.553C620.401 526.821 619.953 527.208 619.577 527.694C619.202 528.179 618.907 528.753 618.709 529.382Z" fill="#E0E0E0"/>
<path d="M618.71 529.382C618.811 528.973 618.965 528.587 619.165 528.241C619.698 527.266 620.486 526.554 621.393 526.229C622.02 526.007 622.679 525.966 623.321 526.109C623.889 526.252 624.427 526.536 624.905 526.946C625.382 527.357 625.789 527.884 626.099 528.496C626.329 528.958 626.495 529.466 626.59 529.998C626.82 531.081 626.765 532.228 626.435 533.27C626.103 534.312 625.516 535.195 624.758 535.792C624.043 536.357 623.207 536.634 622.363 536.588C621.613 536.56 620.884 536.274 620.255 535.762C619.583 535.226 619.049 534.457 618.718 533.549C618.386 532.64 618.271 531.631 618.387 530.643C618.429 530.219 618.53 529.807 618.686 529.427C618.594 529.831 618.526 530.242 618.483 530.658C618.376 531.794 618.578 532.942 619.058 533.916C619.383 534.582 619.825 535.147 620.351 535.567C620.963 536.03 621.66 536.289 622.375 536.318C623.162 536.348 623.938 536.081 624.602 535.552C625.326 534.995 625.885 534.157 626.195 533.165C626.508 532.181 626.562 531.098 626.351 530.073C626.157 529.111 625.741 528.244 625.153 527.581C624.735 527.113 624.243 526.76 623.709 526.544C623.176 526.328 622.612 526.253 622.055 526.325C621.497 526.397 620.957 526.614 620.47 526.962C619.983 527.31 619.559 527.781 619.225 528.346C618.854 528.962 618.734 529.397 618.71 529.382Z" fill="#E0E0E0"/>
<path d="M614.89 524.444H614.746L614.315 524.368L612.602 524.053C612.255 525.194 611.776 526.695 611.213 528.557V528.467L613.129 530.103C613.022 531.135 613.022 532.179 613.129 533.211L611.273 534.922V534.802L612.794 539.2H612.686L614.962 538.66H615.021C615.533 539.476 616.129 540.203 616.794 540.822V540.897C616.686 541.783 616.566 542.758 616.435 543.749L616.375 543.614L619.967 545.37H619.836L621.141 542.984H621.213C622.028 543.111 622.853 543.111 623.668 542.984H623.74L625.105 545.325H624.961L628.482 543.434L628.41 543.584C628.278 542.683 628.135 541.722 627.979 540.747V540.657H628.039C628.686 540.02 629.262 539.278 629.751 538.45H630.003L632.278 538.9L632.159 538.99L633.572 534.487V534.667L631.668 533.03H631.608C631.716 532.004 631.716 530.964 631.608 529.938V529.848H631.668L633.536 528.152V528.317L632.027 523.918L632.147 523.993L629.871 524.519H629.811C629.3 523.702 628.704 522.975 628.039 522.357C628.159 521.366 628.29 520.42 628.398 519.49V519.625L624.806 517.853H624.913L623.596 520.24C622.777 520.104 621.948 520.104 621.129 520.24L619.776 517.898H619.86L616.339 519.775V519.7C616.506 520.841 616.638 521.771 616.746 522.552C616.251 523.037 615.794 523.58 615.381 524.173L615.081 524.609L614.986 524.759L615.069 524.594L615.357 524.128C615.758 523.522 616.208 522.969 616.698 522.477C616.578 521.711 616.435 520.766 616.255 519.64L619.764 517.718L621.129 520.06H621.057C621.888 519.916 622.73 519.916 623.56 520.06H623.488C623.895 519.294 624.326 518.559 624.794 517.658V517.583H624.865L628.458 519.339H628.53V519.445L628.183 522.297V522.177C628.851 522.725 629.462 523.376 630.003 524.113H629.895L632.17 523.573H632.254V523.663L633.763 528.061V528.167H633.691L631.823 529.863V529.728C631.937 530.779 631.937 531.844 631.823 532.895V532.76L633.727 534.397H633.811V534.517L632.398 539.02V539.125H632.302L630.027 538.675H630.135C629.629 539.523 629.037 540.285 628.374 540.942V540.792L628.805 543.629H628.722L625.213 545.641H625.129L625.069 545.551L623.716 543.194H623.824C622.985 543.336 622.135 543.336 621.297 543.194H621.404L620.099 545.581V545.671H620.015L616.423 543.899H616.339V543.809C616.471 542.803 616.59 541.828 616.698 540.942V541.062C616.019 540.432 615.41 539.69 614.89 538.855H614.986L612.71 539.381H612.638V539.306L611.129 534.892V534.817L613.01 533.121V533.211C612.896 532.165 612.896 531.104 613.01 530.058V530.133L611.117 528.497C611.704 526.68 612.183 525.194 612.543 523.993L614.231 524.353L614.662 524.444H614.89Z" fill="#E0E0E0"/>
<path d="M597.777 462.308C598.613 460.908 599.591 459.651 600.687 458.57L599.981 453.811L605.849 450.643L608.124 454.546C609.507 454.314 610.909 454.314 612.291 454.546L614.435 450.553L620.423 453.556L619.824 458.329C620.946 459.369 621.95 460.596 622.806 461.977L626.602 461.092L629.129 468.448L626.016 471.3C626.201 473.029 626.201 474.781 626.016 476.509L629.201 479.256L626.806 486.762L622.998 486.012C622.166 487.416 621.187 488.673 620.088 489.75L620.794 494.509L614.926 497.676L612.651 493.773C611.271 493.999 609.875 493.999 608.495 493.773L606.304 497.751L600.316 494.749L600.915 489.975C599.798 488.927 598.795 487.701 597.933 486.327L594.136 487.213L591.61 479.857L594.735 477.005C594.55 475.271 594.55 473.514 594.735 471.78L591.55 469.048L593.945 461.542L597.753 462.293L597.777 462.308ZM604.16 470.564C603.657 472.145 603.539 473.877 603.821 475.541C604.103 477.206 604.773 478.728 605.746 479.915C606.718 481.103 607.95 481.902 609.284 482.211C610.619 482.521 611.997 482.327 613.244 481.655C614.491 480.983 615.551 479.862 616.29 478.434C617.029 477.006 617.413 475.336 617.395 473.635C617.376 471.933 616.955 470.277 616.185 468.875C615.415 467.473 614.331 466.39 613.07 465.76C612.233 465.341 611.339 465.133 610.438 465.147C609.537 465.162 608.648 465.399 607.82 465.845C606.992 466.292 606.243 466.938 605.615 467.748C604.987 468.558 604.493 469.515 604.16 470.564Z" fill="#F5F5F5"/>
<path d="M604.16 470.564C604.327 469.881 604.582 469.237 604.915 468.657C605.478 467.655 606.203 466.814 607.043 466.187C607.883 465.561 608.819 465.164 609.79 465.022C610.761 464.881 611.745 464.997 612.678 465.365C613.61 465.733 614.47 466.343 615.202 467.156C615.717 467.704 616.158 468.353 616.507 469.078C616.885 469.829 617.168 470.649 617.345 471.51C617.728 473.328 617.636 475.253 617.082 477.001C616.528 478.749 615.542 480.229 614.268 481.222C613.668 481.694 613.014 482.043 612.328 482.258C611.673 482.485 610.994 482.582 610.316 482.544C609.143 482.493 608 482.074 606.991 481.323C605.982 480.573 605.14 479.516 604.543 478.25C603.735 476.549 603.426 474.547 603.669 472.59C603.741 471.885 603.907 471.2 604.16 470.564C604.16 470.564 603.957 471.284 603.825 472.621C603.711 473.788 603.793 474.973 604.066 476.098C604.338 477.224 604.795 478.266 605.407 479.158C606.019 480.049 606.773 480.771 607.62 481.276C608.467 481.782 609.39 482.06 610.328 482.093C610.97 482.116 611.612 482.02 612.232 481.808C612.883 481.602 613.502 481.262 614.064 480.802C615.264 479.862 616.195 478.469 616.723 476.824C617.239 475.168 617.326 473.351 616.974 471.63C616.812 470.818 616.549 470.043 616.196 469.333C615.713 468.353 615.075 467.508 614.321 466.849C613.567 466.191 612.713 465.733 611.813 465.505C610.793 465.245 609.738 465.291 608.735 465.64C607.26 466.13 605.96 467.23 605.046 468.762C604.4 469.858 604.208 470.594 604.16 470.564Z" fill="#F5F5F5"/>
<path d="M597.779 462.308H597.539L596.821 462.187L593.958 461.662H594.03C593.431 463.569 592.653 466.166 591.695 469.168V469.018L594.892 471.735H594.952V471.825C594.798 473.548 594.822 475.289 595.024 477.004V477.094H594.964L591.851 479.962V479.737C592.649 482.068 593.495 484.52 594.39 487.093L594.222 486.972L598.018 486.087H598.114L598.174 486.192C599.027 487.549 600.021 488.756 601.132 489.78H601.216V489.915C601.036 491.416 600.832 493.037 600.629 494.689L600.521 494.463L606.509 497.466L606.293 497.556C606.964 496.31 607.718 494.944 608.473 493.563V493.443H608.581C609.948 493.674 611.333 493.674 612.7 493.443H612.82L612.88 493.563L615.155 497.481L614.928 497.391L620.796 494.223L620.676 494.493C620.46 492.992 620.221 491.371 619.969 489.735V489.585L620.065 489.494C621.149 488.428 622.116 487.186 622.939 485.801L623.011 485.681H623.119L626.939 486.432L626.724 486.597C627.522 484.075 628.32 481.573 629.119 479.091L629.191 479.376L626.017 476.644L625.921 476.554V476.419C626.087 474.702 626.067 472.965 625.861 471.255V471.105H625.945L629.071 468.252L629.011 468.538C628.149 466.031 627.31 463.569 626.484 461.182L626.688 461.317L622.891 462.187H622.784L622.724 462.082C621.873 460.719 620.877 459.507 619.766 458.479L619.694 458.389V458.269C619.898 456.633 620.101 455.042 620.293 453.495L620.4 453.706L614.413 450.703H614.592L612.401 454.681V454.771H612.317C610.946 454.537 609.556 454.537 608.185 454.771H608.114V454.696L605.85 450.763H605.994L600.066 453.916V453.781C600.341 455.687 600.569 457.248 600.749 458.555C599.924 459.359 599.163 460.258 598.473 461.242L597.97 461.992C597.862 462.157 597.814 462.247 597.803 462.232L597.946 461.962L598.425 461.197C599.094 460.177 599.849 459.25 600.677 458.434C600.473 457.128 600.234 455.582 599.946 453.676V453.586L605.802 450.388H605.886L605.946 450.478L608.233 454.381H608.102C609.493 454.109 610.907 454.079 612.305 454.291L612.173 454.366L614.353 450.358L614.413 450.238H614.532L620.52 453.24H620.64V453.405C620.448 454.907 620.257 456.543 620.053 458.179L619.981 457.984C621.12 459.032 622.139 460.269 623.011 461.662L622.843 461.572L626.64 460.686H626.771L626.831 460.851C627.63 463.233 628.476 465.685 629.37 468.207V468.372L629.25 468.478L626.125 471.33L626.197 471.105C626.412 472.854 626.436 474.632 626.269 476.389L626.185 476.164L629.37 478.896L629.49 479.016V479.196C628.692 481.638 627.893 484.14 627.095 486.702L627.035 486.882H626.879L623.059 486.132L623.251 486.027C622.409 487.448 621.418 488.721 620.305 489.81L620.377 489.57C620.628 491.206 620.868 492.827 621.083 494.328V494.524H620.939L615.071 497.691H614.928L614.832 497.541L612.568 493.623L612.748 493.713C611.349 493.944 609.932 493.944 608.533 493.713L608.7 493.608L606.521 497.601L606.437 497.751H606.305L600.317 494.749L600.186 494.674V494.508C600.401 492.842 600.605 491.206 600.784 489.735L600.856 489.93C599.722 488.875 598.707 487.632 597.838 486.237L598.006 486.312L594.198 487.198H594.078V487.047L591.563 479.692V479.556H591.659L594.785 476.704V476.869C594.6 475.121 594.6 473.349 594.785 471.6V471.735L591.611 468.988H591.539V468.898C592.509 465.895 593.324 463.373 593.934 461.467L596.761 462.067L597.479 462.232L597.779 462.308Z" fill="#F5F5F5"/>
<path d="M232.689 613.392C232.689 613.392 232.689 612.701 232.689 611.395C232.689 610.089 232.689 608.138 232.689 605.601C232.689 600.512 232.689 593.051 232.689 583.473C232.689 564.317 232.617 536.71 232.569 502.828L232.809 503.128L80.3593 503.218L80.6706 502.828C80.6706 541.964 80.6706 579.39 80.6706 613.392L80.3832 613.032L190.032 613.212L221.527 613.302H229.91H232.078H232.832H232.114H229.982H221.599L190.175 613.407L80.3353 613.572H80V613.212C80 579.164 80 541.784 80 502.648V502.257H80.3233L232.773 502.347H233.012V502.648C233.012 536.605 232.916 564.287 232.88 583.473C232.88 593.036 232.88 600.467 232.82 605.541C232.82 608.048 232.82 609.969 232.82 611.275C232.82 612.581 232.689 613.392 232.689 613.392Z" fill="#E0E0E0"/>
<path d="M232.748 516.219C232.748 516.429 198.641 516.609 156.583 516.609C114.525 516.609 80.4181 516.429 80.4181 516.219C80.4181 516.009 114.513 515.813 156.583 515.813C198.653 515.813 232.748 515.994 232.748 516.219Z" fill="#E0E0E0"/>
<path d="M140.525 534.443H93.4366V593.471H140.525V534.443Z" fill="#F5F5F5"/>
<path d="M221.623 544.261C221.397 544.309 221.169 544.334 220.94 544.336L218.952 544.411L211.647 544.531L187.552 544.651L163.446 544.531L156.14 544.411L154.152 544.336C153.92 544.333 153.688 544.308 153.458 544.261C153.685 544.193 153.919 544.163 154.152 544.171H156.14L163.446 544.036L187.552 543.931L211.647 544.036L218.952 544.171H220.94C221.17 544.161 221.4 544.192 221.623 544.261Z" fill="#E0E0E0"/>
<path d="M223.144 557.366C222.91 557.408 222.672 557.408 222.437 557.366L220.413 557.441L212.941 557.562L188.307 557.682L163.661 557.562L156.2 557.441L154.164 557.366C153.93 557.407 153.692 557.407 153.458 557.366C153.69 557.301 153.927 557.276 154.164 557.291L156.2 557.216L163.661 557.096L188.307 556.976L212.941 557.096L220.413 557.216L222.437 557.291C222.674 557.274 222.912 557.299 223.144 557.366Z" fill="#E0E0E0"/>
<path d="M223.144 570.547C222.912 570.616 222.675 570.646 222.437 570.637L220.413 570.712L212.941 570.832L188.307 570.938L163.661 570.832L156.2 570.712L154.164 570.637C153.927 570.645 153.689 570.614 153.458 570.547C153.692 570.501 153.928 570.476 154.164 570.472H156.2L163.661 570.352L188.307 570.232L212.941 570.352L220.413 570.472H222.437C222.674 570.474 222.91 570.5 223.144 570.547Z" fill="#E0E0E0"/>
<path d="M223.144 583.744C222.911 583.801 222.674 583.826 222.437 583.819H220.413L212.941 583.939L188.307 584.059L163.661 583.939L156.2 583.819H154.164C153.927 583.825 153.691 583.8 153.458 583.744C153.69 583.678 153.927 583.653 154.164 583.669L156.2 583.594L163.661 583.459L188.307 583.354L212.941 583.459L220.413 583.594L222.437 583.669C222.674 583.651 222.912 583.677 223.144 583.744Z" fill="#E0E0E0"/>
<path d="M671.347 764.207C671.347 764.417 557.064 764.597 416.135 764.597C275.206 764.597 160.899 764.432 160.899 764.207C160.899 763.982 275.158 763.816 416.135 763.816C557.112 763.816 671.347 763.982 671.347 764.207Z" fill="#F1F3F4" fill-opacity="0.47"/>
<path d="M547.37 475.147L570.164 488.388C570.164 488.388 534.501 553.92 527.205 564.474C519.909 575.028 448.018 588.23 448.018 588.23L444.586 549.41L505.867 535.978L547.37 475.147Z" fill="#6366F1"/>
<path d="M523.995 567.583C523.861 567.583 523.698 565.241 522.925 561.634C522.468 559.524 521.881 557.464 521.172 555.474C520.273 553.062 519.219 550.751 518.021 548.566C516.777 546.418 515.39 544.415 513.876 542.579C512.632 541.089 511.295 539.735 509.878 538.53C507.456 536.457 505.777 535.555 505.836 535.402C505.896 535.248 506.282 535.517 507.055 535.901C508.138 536.462 509.183 537.142 510.176 537.935C511.661 539.088 513.064 540.411 514.366 541.888C515.936 543.739 517.369 545.776 518.646 547.971C519.884 550.207 520.945 552.598 521.811 555.109C522.513 557.155 523.065 559.282 523.46 561.461C523.738 562.922 523.917 564.412 523.995 565.913C524.071 566.465 524.071 567.03 523.995 567.583Z" fill="white"/>
<path d="M519.298 552.768C518.557 553.179 517.792 553.513 517.009 553.765C515.523 554.36 513.354 555.166 510.679 556.107C505.315 558.025 497.87 560.367 489.563 562.631C481.257 564.895 473.693 566.565 468.21 567.639C465.461 568.177 463.232 568.56 461.687 568.791C460.892 568.967 460.086 569.057 459.28 569.059C460.051 568.756 460.842 568.537 461.642 568.407L468.121 566.929C473.575 565.701 481.123 563.897 489.415 561.652C497.707 559.407 505.151 557.124 510.545 555.416L516.935 553.401C517.705 553.092 518.496 552.88 519.298 552.768Z" fill="white"/>
<path d="M553.312 479.426C553.475 479.599 544.247 493.415 532.716 510.264C521.185 527.112 511.705 540.641 511.467 540.468C511.229 540.295 520.531 526.46 532.063 509.611C543.594 492.763 553.074 479.234 553.312 479.426Z" fill="white"/>
<path d="M524.262 526.056C524.353 525.994 524.454 525.96 524.557 525.957C524.66 525.955 524.762 525.984 524.854 526.041C524.947 526.099 525.028 526.185 525.09 526.291C525.152 526.397 525.194 526.52 525.213 526.651C525.223 526.79 525.204 526.93 525.16 527.057C525.115 527.184 525.046 527.294 524.959 527.376C524.871 527.459 524.769 527.51 524.662 527.526C524.554 527.542 524.446 527.521 524.346 527.466C524.247 527.412 524.16 527.325 524.095 527.214C524.029 527.103 523.987 526.972 523.973 526.833C523.958 526.695 523.972 526.554 524.012 526.425C524.052 526.295 524.118 526.182 524.202 526.095" fill="white"/>
<path d="M486.934 557.296C487.024 557.229 487.126 557.191 487.23 557.187C487.334 557.182 487.437 557.21 487.531 557.269C487.625 557.327 487.706 557.415 487.768 557.523C487.829 557.632 487.869 557.758 487.885 557.891C487.897 558.031 487.88 558.173 487.836 558.302C487.792 558.431 487.723 558.543 487.635 558.627C487.547 558.711 487.443 558.763 487.335 558.779C487.226 558.795 487.117 558.774 487.016 558.718C486.916 558.662 486.829 558.573 486.764 558.46C486.699 558.347 486.657 558.214 486.644 558.074C486.632 557.934 486.647 557.792 486.69 557.662C486.733 557.532 486.802 557.419 486.889 557.334" fill="white"/>
<path d="M504.884 552.153C504.976 552.091 505.079 552.057 505.182 552.056C505.286 552.054 505.389 552.085 505.482 552.145C505.575 552.205 505.656 552.293 505.717 552.401C505.779 552.509 505.819 552.635 505.835 552.767C505.834 552.9 505.808 553.031 505.76 553.148C505.712 553.265 505.643 553.367 505.559 553.443C505.475 553.52 505.378 553.57 505.277 553.589C505.175 553.608 505.071 553.596 504.974 553.554C504.881 553.495 504.801 553.407 504.741 553.299C504.681 553.19 504.641 553.065 504.627 552.933C504.612 552.801 504.623 552.666 504.657 552.54C504.692 552.415 504.749 552.302 504.825 552.211" fill="white"/>
<path d="M534.44 511.299C534.53 511.232 534.632 511.194 534.736 511.189C534.84 511.185 534.943 511.213 535.037 511.272C535.131 511.33 535.212 511.418 535.274 511.526C535.335 511.635 535.376 511.761 535.391 511.894C535.403 512.034 535.386 512.176 535.342 512.305C535.298 512.434 535.229 512.546 535.141 512.63C535.053 512.714 534.95 512.766 534.841 512.782C534.733 512.798 534.623 512.777 534.522 512.721C534.422 512.665 534.335 512.576 534.27 512.463C534.205 512.35 534.163 512.217 534.151 512.077C534.138 511.936 534.154 511.795 534.196 511.665C534.239 511.535 534.308 511.422 534.395 511.337" fill="white"/>
<path d="M545.111 495.679C545.201 495.601 545.306 495.554 545.415 495.544C545.523 495.533 545.632 495.56 545.73 495.621C545.828 495.682 545.913 495.775 545.974 495.891C546.036 496.007 546.073 496.141 546.082 496.281C546.091 496.422 546.071 496.562 546.025 496.69C545.979 496.817 545.908 496.927 545.818 497.007C545.729 497.088 545.625 497.137 545.517 497.15C545.408 497.163 545.299 497.139 545.2 497.08C545.103 497.016 545.02 496.922 544.959 496.805C544.898 496.688 544.861 496.552 544.852 496.412C544.844 496.271 544.863 496.13 544.908 496.002C544.953 495.874 545.023 495.763 545.111 495.679Z" fill="white"/>
<g opacity="0.3">
<path d="M502.286 539.796C502.449 541.158 493.206 544.229 481.646 546.646C470.085 549.064 460.545 549.909 460.382 548.565C460.218 547.222 469.446 544.152 481.022 541.734C492.597 539.316 502.107 538.433 502.286 539.796Z" fill="white"/>
</g>
<path d="M471.392 560.884C471.482 560.806 471.587 560.759 471.696 560.749C471.804 560.738 471.913 560.765 472.011 560.826C472.109 560.887 472.194 560.98 472.255 561.096C472.317 561.212 472.354 561.346 472.363 561.487C472.372 561.627 472.352 561.767 472.306 561.895C472.26 562.022 472.189 562.132 472.099 562.212C472.01 562.293 471.906 562.342 471.798 562.355C471.689 562.368 471.58 562.344 471.481 562.285C471.384 562.221 471.301 562.127 471.24 562.01C471.179 561.893 471.142 561.757 471.133 561.617C471.125 561.477 471.144 561.336 471.189 561.207C471.234 561.079 471.304 560.968 471.392 560.884Z" fill="white"/>
<path d="M438.151 543.71C441.271 542.411 444.621 542.354 447.766 543.544C450.911 544.735 453.707 547.12 455.789 550.388C457.796 553.732 459.157 557.644 459.762 561.802C460.366 565.959 460.197 570.243 459.267 574.299C457.498 582.416 449.118 593.373 443.441 596.424" fill="#263238"/>
<path d="M576.255 479.426C578.202 476.151 579.885 472.627 581.278 468.91C582.676 465.175 583.153 460.975 582.645 456.878C582.377 454.84 581.717 452.921 580.725 451.298C579.733 449.676 578.441 448.401 576.968 447.591C575.475 446.847 573.829 446.795 572.309 447.442C570.789 448.089 569.49 449.396 568.632 451.141L574.68 435.789C575.423 433.87 576.166 431.51 575.185 429.802C574.667 429.074 573.96 428.616 573.199 428.517C572.437 428.418 571.674 428.684 571.054 429.265C569.845 430.48 568.894 432.071 568.29 433.889L559.374 455.554L551.469 439.569C550.667 437.957 549.522 436.115 548.051 436.422C547.476 436.621 546.97 437.064 546.614 437.68C546.258 438.297 546.073 439.05 546.09 439.819C546.169 441.362 546.515 442.864 547.1 444.213C549.404 450.507 553.579 464.842 553.579 464.842L576.255 479.426Z" fill="#6366F1"/>
<path d="M443.442 595.33C443.323 595.176 445.477 593.046 448.063 588.652C449.579 586.099 450.745 583.231 451.51 580.17C452.404 576.402 452.717 572.445 452.432 568.522C452.019 561.338 450.204 554.406 447.157 548.373C446.338 546.49 445.206 544.865 443.843 543.614C443.303 543.225 442.736 542.904 442.149 542.655C442.316 542.613 442.487 542.613 442.654 542.655C443.122 542.76 443.573 542.961 443.992 543.249C445.471 544.433 446.713 546.05 447.617 547.97C450.872 554.022 452.802 561.096 453.204 568.445C453.532 572.522 453.214 576.642 452.268 580.554C451.444 583.694 450.191 586.619 448.568 589.189C447.5 590.913 446.311 592.506 445.017 593.948C444.534 594.484 444.006 594.948 443.442 595.33Z" fill="#455A64"/>
<path d="M547.368 475.147C553.551 480.253 560.006 484.786 566.685 488.714C569.345 490.307 572.629 491.784 575.037 489.577C575.853 488.701 576.459 487.543 576.786 486.238C577.112 484.934 577.144 483.536 576.879 482.209C576.307 479.557 575.217 477.139 573.714 475.185C569.349 468.862 563.679 464.276 557.369 461.964C555.155 461.001 552.791 460.763 550.488 461.273C549.34 461.538 548.267 462.191 547.377 463.165C546.487 464.139 545.812 465.399 545.421 466.819C545.004 468.285 544.961 469.886 545.301 471.385C545.641 472.884 546.345 474.203 547.309 475.147" fill="#263238"/>
<path d="M576.032 485.95C575.913 485.95 575.052 483.647 573.06 480.385C570.463 476.107 567.154 472.639 563.378 470.237C559.602 467.836 555.455 466.562 551.246 466.511C548.022 466.511 546.031 467.01 546.001 466.837C546.439 466.58 546.905 466.411 547.383 466.338C548.658 466.029 549.95 465.849 551.246 465.801C555.572 465.657 559.859 466.871 563.741 469.338C567.624 471.804 570.985 475.45 573.536 479.963C574.311 481.309 574.992 482.741 575.572 484.242C575.799 484.774 575.955 485.351 576.032 485.95Z" fill="#455A64"/>
<path d="M373.377 414.105C373.377 414.105 324.341 425.81 324.965 482.515C325.589 539.22 367.107 529.683 379.173 527.687C384.641 526.785 395.518 524.79 405.816 522.871C427.615 518.803 443.886 505.101 445.179 476.701C445.342 473.371 445.252 470.029 444.912 466.722C441.865 436.748 420.185 400.672 373.377 414.105Z" fill="#6366F1"/>
<path d="M426.294 470.963L363.72 488.1C360.572 488.964 357.286 488.178 354.586 485.915C351.885 483.651 349.992 480.095 349.321 476.029C348.656 471.961 349.269 467.718 351.024 464.231C352.779 460.745 355.534 458.301 358.683 457.435L421.257 440.279C424.407 439.421 427.693 440.211 430.393 442.478C433.092 444.744 434.985 448.302 435.656 452.369C435.987 454.384 436.008 456.463 435.717 458.488C435.425 460.513 434.828 462.444 433.959 464.171C433.089 465.898 431.965 467.387 430.65 468.552C429.335 469.717 427.855 470.537 426.294 470.963Z" fill="#263238"/>
<path d="M372.174 476.126C374.324 476.126 376.067 473.875 376.067 471.098C376.067 468.321 374.324 466.07 372.174 466.07C370.024 466.07 368.281 468.321 368.281 471.098C368.281 473.875 370.024 476.126 372.174 476.126Z" fill="white"/>
<path d="M415.893 464.112C418.043 464.112 419.786 461.861 419.786 459.085C419.786 456.308 418.043 454.057 415.893 454.057C413.743 454.057 412 456.308 412 459.085C412 461.861 413.743 464.112 415.893 464.112Z" fill="white"/>
<path d="M392.487 444.04C391.7 442.177 391 440.254 390.392 438.283C388.822 433.659 386.778 429.328 384.314 425.407C381.921 421.438 378.751 418.364 375.131 416.503C373.594 415.856 372.026 415.343 370.436 414.968C370.872 414.857 371.321 414.857 371.758 414.968C372.967 415.087 374.159 415.396 375.31 415.889C379.106 417.622 382.438 420.726 384.909 424.831C387.409 428.814 389.414 433.274 390.853 438.053C391.417 439.972 391.833 441.373 392.101 442.409C392.292 442.925 392.422 443.474 392.487 444.04Z" fill="white"/>
<path d="M394.062 525.039C393.958 524.924 395.37 523.12 397.034 519.839C399.274 515.496 400.746 510.569 401.343 505.408C401.826 500.217 401.791 494.967 401.239 489.788C400.909 487.64 400.685 485.467 400.571 483.283C400.762 483.822 400.902 484.389 400.987 484.971C401.195 486.084 401.477 487.677 401.774 489.673C402.506 494.911 402.616 500.262 402.101 505.543C401.508 510.854 399.922 515.9 397.48 520.242C396.751 521.546 395.941 522.772 395.058 523.907C394.768 524.342 394.433 524.723 394.062 525.039Z" fill="white"/>
<g opacity="0.3">
<path d="M439.606 500.419C433.848 495.85 427.278 493.267 420.526 492.916C413.809 492.6 407.085 493.198 400.465 494.701C385.101 497.694 369.364 502.377 356.927 514.389C353.269 517.565 350.359 521.98 348.516 527.15C348.516 527.15 355.114 530.662 368.279 529.53C381.445 528.398 408.594 522.295 408.594 522.295C408.594 522.295 422.487 519.263 430.333 511.684C438.179 504.104 439.606 500.419 439.606 500.419Z" fill="black"/>
</g>
<path d="M439.459 450.776C439.732 451.716 439.917 452.695 440.009 453.693C440.343 456.56 440.139 459.488 439.414 462.232C438.211 466.586 435.859 470.254 432.772 472.594C429.221 475.434 424.599 476.97 419.577 478.351L384.166 488.445L373.928 491.323C370.436 492.244 366.899 493.453 363.169 494.067C359.337 494.944 355.387 494.076 351.995 491.611C348.6 488.812 346.14 484.471 345.1 479.445C344.064 474.415 344.548 469.064 346.452 464.477C348.306 460.055 351.258 456.567 354.833 454.575C356.567 453.726 358.358 453.083 360.183 452.656L365.458 451.064L375.652 447.993L394.523 442.237C400.467 440.605 405.861 438.399 410.943 437.132C413.354 436.488 415.797 436.058 418.254 435.846C420.454 435.609 422.669 435.706 424.852 436.134C428.375 436.782 431.711 438.585 434.54 441.373C436.293 443.167 437.702 445.459 438.656 448.07C438.913 448.744 439.127 449.443 439.295 450.162C439.366 450.398 439.421 450.642 439.459 450.891C439.459 450.891 439.206 449.912 438.523 448.166C437.522 445.624 436.096 443.402 434.347 441.661C431.539 438.988 428.251 437.278 424.792 436.691C422.641 436.299 420.462 436.228 418.299 436.48C415.861 436.719 413.439 437.168 411.047 437.823C406.01 439.166 400.645 441.373 394.702 443.043L375.845 448.799L365.651 451.927L360.376 453.52C358.595 453.95 356.849 454.592 355.16 455.439C351.746 457.357 348.927 460.693 347.151 464.919C345.334 469.28 344.872 474.371 345.858 479.157C346.857 483.914 349.193 488.02 352.411 490.671C355.659 493.011 359.431 493.837 363.095 493.012C366.736 492.398 370.287 491.208 373.779 490.287L384.032 487.447L419.473 477.641C424.043 476.737 428.467 474.863 432.564 472.095C435.602 469.861 437.934 466.314 439.147 462.078C439.881 459.391 440.13 456.523 439.875 453.693C439.682 451.774 439.414 450.795 439.459 450.776Z" fill="white"/>
<path d="M325.648 491.899C326.337 490.848 327.143 489.936 328.041 489.193C332.172 485.256 336.817 482.312 341.756 480.501C342.757 480.048 343.803 479.783 344.862 479.714C344.936 480.021 340.241 481.633 334.936 484.953C329.631 488.272 325.797 492.149 325.648 491.899Z" fill="white"/>
<path d="M376.602 422.049C376.692 421.971 376.797 421.924 376.905 421.914C377.014 421.904 377.123 421.93 377.221 421.991C377.319 422.052 377.403 422.145 377.465 422.261C377.527 422.377 377.564 422.511 377.573 422.652C377.582 422.792 377.562 422.932 377.516 423.06C377.469 423.187 377.398 423.297 377.309 423.377C377.22 423.458 377.116 423.507 377.007 423.52C376.899 423.533 376.79 423.509 376.691 423.45C376.597 423.383 376.517 423.287 376.458 423.17C376.4 423.053 376.365 422.919 376.356 422.781C376.347 422.642 376.365 422.503 376.408 422.375C376.451 422.248 376.517 422.136 376.602 422.049Z" fill="white"/>
<path d="M384.373 436.729C384.463 436.65 384.568 436.603 384.676 436.593C384.785 436.583 384.894 436.609 384.992 436.67C385.09 436.731 385.174 436.824 385.236 436.94C385.298 437.056 385.335 437.191 385.344 437.331C385.353 437.471 385.333 437.612 385.287 437.739C385.24 437.866 385.169 437.976 385.08 438.057C384.991 438.137 384.887 438.187 384.778 438.199C384.67 438.212 384.561 438.188 384.462 438.13C384.37 438.059 384.293 437.961 384.237 437.845C384.181 437.728 384.147 437.596 384.138 437.459C384.129 437.322 384.146 437.184 384.187 437.057C384.228 436.93 384.291 436.817 384.373 436.729Z" fill="white"/>
<path d="M337.312 477.795C337.404 477.728 337.507 477.691 337.612 477.687C337.717 477.683 337.821 477.713 337.915 477.774C338.009 477.834 338.09 477.924 338.151 478.035C338.212 478.146 338.25 478.274 338.263 478.409C338.265 478.544 338.241 478.676 338.194 478.796C338.147 478.916 338.078 479.019 337.993 479.097C337.908 479.174 337.81 479.224 337.707 479.241C337.604 479.258 337.499 479.243 337.402 479.196C337.31 479.132 337.232 479.041 337.173 478.93C337.114 478.82 337.077 478.692 337.064 478.559C337.05 478.426 337.062 478.291 337.098 478.164C337.133 478.038 337.192 477.925 337.268 477.834" fill="white"/>
<path d="M327.594 484.606C327.685 484.532 327.789 484.489 327.896 484.481C328.004 484.474 328.111 484.502 328.207 484.564C328.304 484.626 328.386 484.719 328.446 484.834C328.507 484.949 328.543 485.082 328.552 485.221C328.56 485.359 328.541 485.498 328.496 485.624C328.451 485.751 328.381 485.859 328.294 485.941C328.206 486.022 328.104 486.072 327.997 486.087C327.89 486.102 327.782 486.081 327.683 486.026C327.592 485.963 327.513 485.872 327.454 485.761C327.396 485.65 327.358 485.523 327.345 485.39C327.332 485.256 327.344 485.121 327.379 484.995C327.415 484.869 327.473 484.755 327.549 484.664" fill="white"/>
<g opacity="0.3">
<path d="M386.633 415.026C386.752 415.755 382.339 417.367 375.369 420.265C368.4 423.163 358.831 427.48 349.945 435.617C345.824 439.488 342.168 444.124 339.097 449.375C336.601 453.677 334.599 458.42 333.153 463.46C330.716 472.134 331.028 478.14 330.36 478.16C330.122 478.16 329.765 476.72 329.587 473.976C329.423 470.097 329.744 466.21 330.538 462.463C331.714 456.85 333.629 451.54 336.199 446.766C339.336 440.915 343.22 435.795 347.686 431.625C352.133 427.565 356.955 424.239 362.04 421.723C366.139 419.688 370.351 418.059 374.641 416.849C381.937 414.796 386.529 414.393 386.633 415.026Z" fill="white"/>
</g>
<g opacity="0.3">
<path d="M339.23 506.099C338.576 507.174 335.753 505.677 333.672 501.916C331.592 498.155 331.428 494.24 332.424 493.76C333.42 493.281 335.084 495.89 336.882 499.018C338.68 502.146 339.898 505.005 339.23 506.099Z" fill="white"/>
</g>
<path d="M440.899 536.898C443.871 537.992 443.693 593.565 443.054 621.927C442.712 637.125 441.836 652.995 435.832 666.063C429.145 680.627 416.411 689.934 403.319 691.009C387.583 692.391 372.01 682.546 361.237 667.636C350.464 652.726 344.074 633.268 340.642 613.368C337.209 593.469 336.54 573.07 335.886 552.595C335.886 552.672 386.885 517.229 440.899 536.898Z" fill="#6366F1"/>
<g opacity="0.2">
<path d="M338.277 579.537C337.921 597.46 340.373 618.127 344.816 633.075C349.63 649.271 356.614 663.779 368.294 676.06C371.571 679.225 375.051 682.024 378.696 684.426C381.77 686.476 385.015 688.067 388.369 689.166C393.912 691.219 397.166 682.354 398.251 675.043C399.336 667.732 397.3 660.075 393.793 654.107C390.156 648.309 385.742 643.402 380.761 639.619C375.79 635.853 370.987 631.727 366.377 627.261C358.811 618.9 352.794 608.454 348.768 596.692C344.764 584.97 341.441 572.879 338.827 560.52" fill="black"/>
</g>
<path d="M374.653 655.393C374.746 655.331 374.849 655.298 374.954 655.296C375.059 655.295 375.162 655.325 375.256 655.385C375.35 655.445 375.432 655.532 375.495 655.64C375.558 655.749 375.6 655.874 375.619 656.007C375.618 656.142 375.592 656.275 375.543 656.395C375.494 656.514 375.424 656.617 375.338 656.694C375.252 656.771 375.153 656.82 375.05 656.838C374.946 656.855 374.84 656.84 374.742 656.794C374.651 656.733 374.572 656.644 374.513 656.534C374.454 656.425 374.417 656.299 374.404 656.168C374.391 656.036 374.402 655.902 374.438 655.777C374.474 655.652 374.532 655.54 374.608 655.451" fill="white"/>
<path d="M393.734 654.376C393.825 654.302 393.929 654.259 394.037 654.251C394.144 654.244 394.251 654.272 394.348 654.334C394.444 654.396 394.526 654.489 394.587 654.604C394.647 654.719 394.683 654.852 394.692 654.991C394.701 655.129 394.681 655.268 394.636 655.394C394.591 655.521 394.521 655.629 394.434 655.711C394.347 655.792 394.244 655.842 394.137 655.857C394.031 655.872 393.922 655.851 393.823 655.796C393.731 655.734 393.651 655.645 393.591 655.535C393.531 655.425 393.492 655.298 393.477 655.165C393.463 655.031 393.473 654.895 393.507 654.768C393.542 654.641 393.599 654.527 393.675 654.434" fill="white"/>
<path d="M414.568 628.968C414.658 628.901 414.76 628.864 414.864 628.859C414.968 628.854 415.071 628.882 415.165 628.941C415.259 629 415.34 629.087 415.402 629.195C415.463 629.304 415.503 629.43 415.519 629.563C415.531 629.704 415.514 629.845 415.47 629.975C415.426 630.104 415.357 630.216 415.269 630.3C415.181 630.383 415.078 630.436 414.969 630.452C414.86 630.468 414.751 630.447 414.65 630.391C414.55 630.335 414.463 630.246 414.398 630.132C414.333 630.019 414.291 629.886 414.279 629.746C414.266 629.606 414.281 629.464 414.324 629.334C414.367 629.205 414.436 629.092 414.523 629.007" fill="white"/>
<path d="M405 566.162C405.092 566.099 405.195 566.066 405.298 566.065C405.402 566.063 405.505 566.094 405.598 566.154C405.691 566.214 405.772 566.301 405.833 566.41C405.895 566.518 405.935 566.644 405.951 566.776C405.949 566.909 405.923 567.04 405.875 567.157C405.827 567.275 405.759 567.377 405.675 567.455C405.592 567.533 405.495 567.585 405.394 567.607C405.292 567.629 405.188 567.621 405.09 567.582C404.997 567.52 404.917 567.43 404.857 567.321C404.797 567.211 404.758 567.084 404.743 566.95C404.729 566.817 404.739 566.681 404.773 566.554C404.808 566.427 404.865 566.312 404.941 566.22" fill="white"/>
<path d="M424.524 576.467C424.615 576.4 424.716 576.362 424.82 576.357C424.924 576.353 425.028 576.381 425.122 576.439C425.215 576.498 425.297 576.586 425.358 576.694C425.42 576.803 425.46 576.929 425.475 577.062C425.485 577.201 425.467 577.341 425.422 577.468C425.378 577.595 425.309 577.705 425.221 577.787C425.134 577.869 425.032 577.921 424.924 577.936C424.817 577.952 424.708 577.932 424.609 577.877C424.51 577.822 424.423 577.735 424.357 577.624C424.292 577.513 424.25 577.382 424.235 577.244C424.221 577.106 424.234 576.965 424.275 576.836C424.315 576.706 424.38 576.592 424.465 576.505" fill="white"/>
<path d="M353.049 648.082C353.141 648.019 353.244 647.985 353.348 647.984C353.451 647.982 353.554 648.013 353.647 648.073C353.74 648.133 353.821 648.221 353.882 648.329C353.944 648.437 353.984 648.563 354 648.696C353.999 648.828 353.973 648.959 353.925 649.076C353.877 649.194 353.808 649.295 353.724 649.371C353.64 649.448 353.543 649.498 353.442 649.517C353.34 649.537 353.236 649.525 353.139 649.482C353.046 649.423 352.966 649.335 352.906 649.227C352.846 649.119 352.806 648.993 352.792 648.861C352.777 648.729 352.788 648.594 352.822 648.469C352.857 648.343 352.914 648.23 352.99 648.139" fill="white"/>
<path d="M349.899 627.185C349.991 627.122 350.093 627.088 350.197 627.087C350.301 627.085 350.404 627.116 350.497 627.176C350.59 627.236 350.67 627.324 350.732 627.432C350.793 627.54 350.834 627.666 350.85 627.799C350.848 627.931 350.822 628.062 350.774 628.179C350.726 628.297 350.658 628.398 350.574 628.474C350.49 628.551 350.393 628.601 350.291 628.62C350.189 628.64 350.085 628.628 349.988 628.585C349.896 628.526 349.816 628.438 349.755 628.33C349.695 628.222 349.656 628.096 349.641 627.964C349.627 627.832 349.637 627.697 349.672 627.572C349.706 627.446 349.764 627.333 349.839 627.242" fill="white"/>
<path d="M348.517 608.264C348.609 608.201 348.711 608.168 348.815 608.166C348.919 608.165 349.022 608.195 349.115 608.255C349.208 608.315 349.288 608.403 349.35 608.511C349.411 608.62 349.452 608.745 349.468 608.878C349.47 609.012 349.446 609.145 349.399 609.265C349.352 609.384 349.283 609.488 349.198 609.565C349.113 609.643 349.015 609.692 348.912 609.71C348.809 609.727 348.704 609.711 348.606 609.665C348.515 609.601 348.436 609.51 348.378 609.399C348.319 609.288 348.281 609.161 348.268 609.028C348.255 608.894 348.267 608.759 348.302 608.633C348.338 608.507 348.396 608.393 348.472 608.302" fill="white"/>
<path d="M347.134 588.23C347.226 588.167 347.328 588.134 347.432 588.132C347.536 588.131 347.639 588.161 347.732 588.221C347.825 588.282 347.905 588.369 347.967 588.478C348.028 588.586 348.069 588.712 348.085 588.844C348.084 588.977 348.058 589.107 348.01 589.225C347.962 589.342 347.893 589.443 347.809 589.52C347.725 589.597 347.628 589.647 347.526 589.666C347.425 589.685 347.321 589.673 347.223 589.631C347.131 589.571 347.051 589.484 346.991 589.375C346.93 589.267 346.891 589.142 346.877 589.01C346.862 588.877 346.872 588.743 346.907 588.617C346.941 588.491 346.999 588.378 347.075 588.288" fill="white"/>
<path d="M436.113 571.554C436.204 571.475 436.308 571.428 436.417 571.418C436.526 571.408 436.634 571.435 436.733 571.495C436.831 571.556 436.915 571.649 436.977 571.765C437.038 571.881 437.076 572.016 437.085 572.156C437.093 572.296 437.074 572.437 437.028 572.564C436.981 572.692 436.91 572.801 436.821 572.882C436.732 572.963 436.628 573.012 436.519 573.025C436.411 573.037 436.302 573.013 436.203 572.955C436.105 572.891 436.022 572.796 435.961 572.679C435.901 572.562 435.864 572.427 435.855 572.286C435.846 572.146 435.865 572.005 435.91 571.877C435.956 571.748 436.026 571.637 436.113 571.554Z" fill="white"/>
<path d="M417.751 652.495C417.841 652.428 417.942 652.391 418.047 652.386C418.151 652.381 418.254 652.409 418.348 652.468C418.442 652.526 418.523 652.614 418.585 652.722C418.646 652.831 418.686 652.957 418.702 653.09C418.713 653.23 418.697 653.372 418.653 653.501C418.609 653.631 418.54 653.743 418.452 653.826C418.364 653.91 418.26 653.963 418.152 653.979C418.043 653.995 417.933 653.973 417.833 653.917C417.733 653.861 417.646 653.772 417.581 653.659C417.515 653.546 417.474 653.413 417.461 653.273C417.449 653.133 417.464 652.991 417.507 652.861C417.55 652.731 417.619 652.618 417.706 652.534" fill="white"/>
<path d="M419.844 672.337C419.934 672.258 420.039 672.212 420.147 672.201C420.256 672.191 420.365 672.218 420.463 672.279C420.561 672.339 420.645 672.432 420.707 672.548C420.769 672.664 420.806 672.799 420.815 672.939C420.824 673.079 420.804 673.22 420.758 673.347C420.712 673.475 420.64 673.584 420.551 673.665C420.462 673.746 420.358 673.795 420.25 673.808C420.141 673.821 420.032 673.796 419.933 673.738C419.839 673.671 419.759 673.574 419.7 673.457C419.642 673.341 419.607 673.207 419.598 673.068C419.589 672.93 419.607 672.79 419.65 672.663C419.693 672.535 419.759 672.423 419.844 672.337Z" fill="white"/>
<g opacity="0.3">
<path d="M429.071 551.77C429.22 552.365 424.613 555.032 416.738 557.776C412.125 559.386 407.447 560.668 402.725 561.614C391.141 563.941 379.381 564.456 367.701 563.149C362.944 562.613 358.212 561.755 353.525 560.578C345.531 558.505 340.79 556.26 340.909 555.646C341.147 554.13 360.702 559.944 385.131 558.755C409.561 557.565 428.744 550.35 429.071 551.77Z" fill="white"/>
</g>
<path d="M372.888 680.339C372.888 680.339 372.591 680.09 372.07 679.533C371.55 678.977 370.807 678.094 369.901 676.924C367.287 673.609 365.162 669.708 363.63 665.41C362.617 662.44 361.782 659.373 361.134 656.237C360.361 652.918 359.648 649.329 358.816 645.549C357.255 637.969 355.74 629.602 354.358 620.737C352.046 605.556 350.404 590.218 349.439 574.797C349.098 568.906 348.904 564.128 348.815 560.808V556.97C348.789 556.523 348.789 556.074 348.815 555.627C348.897 556.061 348.941 556.505 348.949 556.951C348.949 557.93 349.083 559.177 349.172 560.789C349.35 564.09 349.632 568.868 350.049 574.74C350.925 586.503 352.456 602.737 355.19 620.43C356.557 629.257 358.043 637.7 359.648 645.203C360.406 649.041 361.134 652.553 361.892 655.892C362.504 659.001 363.293 662.048 364.254 665.007C365.707 669.259 367.718 673.154 370.198 676.521C371.06 677.73 371.773 678.631 372.249 679.245C372.481 679.591 372.694 679.956 372.888 680.339Z" fill="white"/>
<path d="M407.482 619.125C407.69 619.125 409.28 634.362 411.048 653.244C412.816 672.127 414.02 687.459 413.857 687.498C413.693 687.536 412.044 672.242 410.275 653.359C408.507 634.477 407.259 619.145 407.482 619.125Z" fill="white"/>
<path d="M385.103 532.984C385.506 533.38 385.866 533.845 386.172 534.366C386.811 535.287 387.658 536.649 388.847 538.338C391.091 541.734 394.137 546.474 397.466 551.77L398.699 553.689L398.848 553.92C398.93 553.997 398.992 554.103 399.026 554.227C399.072 554.364 399.112 554.505 399.145 554.649V554.975C399.219 555.397 399.249 555.8 399.293 556.203C399.412 557.815 399.487 559.369 399.546 560.847C399.665 563.783 399.71 566.45 399.754 568.676C399.799 570.902 399.754 572.706 399.754 573.953C399.79 574.596 399.755 575.242 399.65 575.872C399.373 573.489 399.219 571.085 399.189 568.676C399.085 566.374 398.952 563.745 398.818 560.885C398.818 559.408 398.655 557.873 398.521 556.299C398.521 555.915 398.446 555.512 398.387 555.148V554.86V554.706C398.387 554.706 398.209 554.457 398.134 554.284L396.901 552.365C393.573 547.107 390.586 542.291 388.461 538.798C387.391 537.033 386.544 535.613 385.964 534.596C385.627 534.107 385.337 533.565 385.103 532.984Z" fill="white"/>
<path d="M408.805 648.082C408.203 648.341 407.579 648.508 406.947 648.581C405.729 648.849 403.975 649.156 401.821 649.502C397.482 650.212 391.419 650.96 384.806 651.421C378.194 651.881 372.101 651.881 367.733 651.766C365.563 651.766 363.795 651.613 362.576 651.517C361.938 651.511 361.301 651.428 360.674 651.267C361.302 651.128 361.94 651.077 362.576 651.114H367.747C372.101 651.114 378.149 650.903 384.777 650.48C391.404 650.058 397.422 649.406 401.761 648.888L406.903 648.274C407.531 648.133 408.167 648.069 408.805 648.082Z" fill="white"/>
<path d="M443.353 573.953C443.353 573.953 443.011 574.356 442.328 574.894C441.365 575.667 440.373 576.378 439.356 577.024C435.982 579.148 432.472 580.888 428.865 582.224C425.27 583.598 421.606 584.65 417.898 585.371C416.372 585.763 414.819 585.956 413.262 585.947C414.75 585.398 416.264 584.975 417.794 584.68C420.603 583.951 424.466 582.761 428.642 581.284C432.213 579.931 435.717 578.297 439.133 576.39C441.644 574.894 443.219 573.819 443.353 573.953Z" fill="white"/>
<path d="M414.829 613.169C421.63 604.387 421.63 590.147 414.829 581.364C408.027 572.581 397.001 572.581 390.199 581.364C383.398 590.147 383.398 604.387 390.199 613.169C397.001 621.952 408.027 621.952 414.829 613.169Z" fill="#263238"/>
<path d="M407.161 612.539C413.681 609.219 416.882 599.702 414.311 591.283C411.741 582.863 404.371 578.729 397.851 582.049C391.331 585.369 388.13 594.886 390.7 603.305C393.271 611.725 400.641 615.859 407.161 612.539Z" fill="white"/>
<path d="M409.265 600.799C409.128 599.919 409.039 599.028 408.997 598.132C408.878 596.443 408.715 594.025 408.537 591.089L408.7 591.396L401.909 587.117H402.281L395.98 592.509C395.817 592.912 396.188 591.972 396.144 592.068V592.663V593.296V594.563C396.144 595.407 396.218 596.232 396.248 597.038C396.322 598.669 396.381 600.243 396.456 601.759L396.248 601.375L402.964 605.846H402.682C404.614 604.253 406.204 602.987 407.318 602.104C407.906 601.616 408.517 601.174 409.146 600.78C408.673 601.379 408.15 601.907 407.585 602.353C406.53 603.332 404.97 604.733 402.994 606.46L402.86 606.575H402.712L395.921 602.296L395.742 602.181V601.893C395.668 600.377 395.579 598.803 395.505 597.172C395.505 596.366 395.43 595.541 395.386 594.697V593.43V592.797V592.068C395.386 592.164 395.728 591.224 395.564 591.607L401.894 586.273L402.073 586.119L402.251 586.253L408.967 590.725L409.131 590.821V591.032C409.235 594.083 409.294 596.558 409.324 598.247C409.375 599.098 409.355 599.954 409.265 600.799Z" fill="#6366F1"/>
<g opacity="0.2">
<path d="M335.886 552.672C335.886 552.672 386.9 516.692 440.899 536.898C440.899 536.898 417.793 565.203 335.886 552.672Z" fill="black"/>
</g>
<path d="M238.749 534.289C238.749 534.289 235.168 515.349 233.251 514.447C231.334 513.545 208.347 517.805 208.347 517.805C208.347 517.805 200.917 504.372 199.728 502.569C198.539 500.765 196.087 505.236 196.89 507.27C197.692 509.304 203.175 528.935 206.578 529.607C210.574 529.909 214.582 529.839 218.57 529.395L221.364 541.753L238.749 534.289Z" fill="#6366F1"/>
<path d="M338.116 607.593C323.613 614.424 314.341 617.878 299.823 624.863C291.769 628.701 281.516 633 273.923 635.514C268.856 637.202 263.046 637.72 258.142 634.957C253.966 632.616 250.905 627.914 248.156 623.213C235.273 601.222 228.096 573.32 223.088 546.455L240.518 542.214L272.051 599.169L329.364 573.858L338.815 603.947C339.015 604.218 339.159 604.55 339.233 604.912C339.308 605.274 339.31 605.654 339.241 606.017C339.171 606.381 339.031 606.716 338.835 606.991C338.638 607.267 338.391 607.474 338.116 607.593Z" fill="#6366F1"/>
<path d="M338.712 560.04C335.191 561.432 332.028 564.031 329.561 567.561C327.094 571.09 325.414 575.418 324.7 580.083C323.987 584.747 324.266 589.575 325.509 594.051C326.752 598.527 328.911 602.483 331.757 605.5C334.135 608.014 337.478 609.952 340.257 606.114C341.119 604.882 341.741 603.402 342.07 601.796C345.161 587.839 343.958 572.879 338.712 560.04Z" fill="#263238"/>
<path d="M329.913 567.237C329.913 567.237 329.913 567.064 330.121 566.796C330.356 566.41 330.631 566.068 330.938 565.779C331.187 565.562 331.472 565.424 331.77 565.376C332.118 565.372 332.462 565.464 332.78 565.644C333.158 565.841 333.486 566.166 333.732 566.585L334.474 567.851C337.204 572.557 339.083 577.993 339.973 583.759C340.912 589.524 340.785 595.494 339.601 601.183C339.218 602.932 338.48 604.515 337.461 605.769C337.099 606.243 336.641 606.576 336.139 606.729C336.139 606.729 336.599 606.345 337.253 605.482C338.137 604.199 338.764 602.658 339.081 600.991C340.073 595.396 340.118 589.59 339.215 583.97C338.339 578.334 336.573 572.99 334.029 568.273C333.523 567.352 333.182 566.354 332.543 566.143C332.317 565.975 332.061 565.886 331.8 565.886C331.539 565.886 331.283 565.975 331.057 566.143C330.314 566.738 329.957 567.314 329.913 567.237Z" fill="#455A64"/>
<path d="M272.051 599.264C272.209 599.791 272.294 600.349 272.303 600.914C272.47 602.433 272.525 603.968 272.467 605.5C272.401 607.784 272.132 610.051 271.665 612.255C270.049 619.922 266.358 626.587 261.263 631.041C260.291 631.922 259.267 632.705 258.202 633.383C257.827 633.668 257.421 633.882 256.998 634.016C256.998 633.843 258.588 632.768 260.936 630.466C263.999 627.483 266.575 623.746 268.514 619.47C269.557 617.113 270.385 614.608 270.981 612.005C271.457 609.869 271.771 607.677 271.917 605.462C272.14 601.662 271.902 599.283 272.051 599.264Z" fill="white"/>
<path d="M326.629 580.881C326.704 581.13 314.548 587.271 299.481 594.582C284.413 601.893 272.139 607.631 272.065 607.362C271.99 607.094 284.131 600.972 299.213 593.661C314.296 586.35 326.555 580.555 326.629 580.881Z" fill="white"/>
<path d="M228.764 546.013C228.895 546.288 228.995 546.585 229.061 546.896L229.804 549.506C230.428 551.751 231.29 555.013 232.553 559.1C234.931 567.102 238.497 578.021 243.029 589.804C245.303 595.56 247.606 601.125 249.791 606.038C251.975 610.95 254.07 615.287 255.913 618.837C256.819 620.641 257.666 622.234 258.424 623.635C259.182 625.035 259.821 626.244 260.385 627.185L261.634 629.449C261.901 629.967 262.05 630.255 262.02 630.274C261.832 630.063 261.662 629.824 261.515 629.564L260.148 627.434C259.553 626.513 258.855 625.342 258.082 623.961C257.31 622.579 256.388 621.025 255.467 619.24C253.55 615.729 251.44 611.373 249.166 606.518C246.893 601.663 244.619 596.117 242.331 590.264C238.455 580.248 235.017 569.959 232.033 559.446C230.889 555.397 230.057 552.096 229.522 549.851C229.284 548.796 229.076 547.932 228.913 547.203C228.81 546.821 228.76 546.418 228.764 546.013Z" fill="white"/>
<path d="M283.329 606.191C283.414 606.115 283.485 606.014 283.533 605.895C283.582 605.776 283.607 605.644 283.607 605.51C283.607 605.376 283.582 605.243 283.533 605.125C283.485 605.006 283.414 604.904 283.329 604.829C283.234 604.759 283.126 604.723 283.017 604.723C282.908 604.724 282.801 604.761 282.706 604.832C282.612 604.903 282.533 605.005 282.479 605.127C282.424 605.249 282.396 605.388 282.396 605.529C282.396 605.67 282.424 605.809 282.479 605.931C282.533 606.053 282.612 606.155 282.706 606.226C282.801 606.297 282.908 606.334 283.017 606.335C283.126 606.336 283.234 606.299 283.329 606.23" fill="white"/>
<path d="M259.093 615.461C259.187 615.39 259.265 615.29 259.319 615.169C259.374 615.048 259.403 614.91 259.404 614.77C259.405 614.63 259.378 614.492 259.325 614.37C259.272 614.248 259.195 614.145 259.102 614.073C259.01 614 258.904 613.961 258.795 613.957C258.687 613.954 258.579 613.987 258.484 614.054C258.388 614.12 258.308 614.217 258.251 614.336C258.193 614.455 258.161 614.591 258.156 614.731C258.157 614.873 258.185 615.013 258.239 615.136C258.293 615.26 258.371 615.363 258.465 615.437C258.56 615.51 258.667 615.551 258.777 615.555C258.887 615.559 258.995 615.527 259.093 615.461Z" fill="white"/>
<path d="M248.021 593.2C248.114 593.13 248.192 593.03 248.246 592.91C248.301 592.79 248.33 592.654 248.332 592.515C248.333 592.375 248.307 592.238 248.255 592.116C248.203 591.994 248.128 591.891 248.036 591.818C247.945 591.745 247.84 591.703 247.732 591.698C247.624 591.692 247.517 591.723 247.422 591.787C247.326 591.851 247.244 591.946 247.185 592.062C247.126 592.179 247.092 592.313 247.085 592.452C247.087 592.593 247.116 592.732 247.17 592.855C247.224 592.979 247.301 593.082 247.395 593.157C247.488 593.231 247.594 593.274 247.704 593.282C247.813 593.289 247.922 593.261 248.021 593.2Z" fill="white"/>
<path d="M297.562 599.744C297.656 599.674 297.734 599.574 297.789 599.453C297.843 599.331 297.873 599.194 297.874 599.054C297.875 598.914 297.847 598.776 297.794 598.654C297.742 598.531 297.665 598.429 297.572 598.357C297.479 598.284 297.373 598.244 297.265 598.241C297.156 598.238 297.049 598.271 296.953 598.337C296.858 598.404 296.778 598.501 296.72 598.62C296.663 598.739 296.63 598.875 296.626 599.015C296.63 599.155 296.661 599.291 296.716 599.412C296.771 599.533 296.849 599.634 296.942 599.706C297.035 599.778 297.14 599.82 297.248 599.826C297.356 599.833 297.464 599.805 297.562 599.744Z" fill="white"/>
<path d="M313.626 592.606C313.718 592.543 313.82 592.509 313.924 592.508C314.028 592.506 314.131 592.537 314.224 592.597C314.317 592.657 314.397 592.745 314.459 592.853C314.52 592.961 314.561 593.087 314.577 593.22C314.575 593.353 314.548 593.483 314.501 593.601C314.453 593.718 314.384 593.82 314.301 593.898C314.217 593.976 314.121 594.028 314.02 594.05C313.918 594.073 313.814 594.064 313.715 594.026C313.623 593.964 313.543 593.874 313.483 593.764C313.423 593.654 313.383 593.527 313.369 593.394C313.354 593.26 313.365 593.125 313.399 592.997C313.434 592.87 313.491 592.756 313.567 592.663" fill="white"/>
<path d="M222.701 546.685C228.656 546.133 234.574 545.05 240.413 543.442C242.746 542.828 245.451 541.734 246.179 538.798C246.393 537.723 246.367 536.593 246.104 535.536C245.841 534.48 245.352 533.542 244.693 532.83C243.32 531.469 241.706 530.572 239.997 530.22C234.781 528.825 229.365 529.371 224.38 531.794C222.58 532.551 220.952 533.869 219.639 535.632C218.99 536.524 218.533 537.622 218.317 538.814C218.1 540.007 218.131 541.252 218.406 542.425C218.683 543.643 219.255 544.715 220.039 545.482C220.823 546.249 221.777 546.67 222.76 546.685" fill="#263238"/>
<path d="M245.407 535.881C245.407 536.035 243.921 535.056 241.35 534.173C238.07 533.046 234.637 532.869 231.298 533.656C227.958 534.442 224.794 536.172 222.033 538.721C219.908 540.64 218.808 542.271 218.704 542.137C218.879 541.683 219.115 541.273 219.403 540.928C220.11 539.921 220.88 538.99 221.706 538.145C224.47 535.338 227.725 533.447 231.185 532.637C234.646 531.828 238.207 532.125 241.558 533.502C242.583 533.904 243.578 534.425 244.53 535.056C244.854 535.27 245.15 535.549 245.407 535.881Z" fill="#455A64"/>
<path d="M402.933 463.23C403.319 464.607 403.319 466.114 402.933 467.491C402.599 469.023 401.988 470.431 401.149 471.597C400.42 472.611 399.533 473.415 398.547 473.957C397.561 474.5 396.498 474.769 395.426 474.748C394.354 474.726 393.298 474.414 392.326 473.831C391.354 473.249 390.487 472.409 389.782 471.367C388.958 470.348 388.433 468.992 388.296 467.529C388.828 468.723 389.456 469.842 390.168 470.868C390.967 471.908 391.937 472.702 393.006 473.19C394.312 473.774 395.719 473.868 397.063 473.458C398.409 473.076 399.641 472.204 400.615 470.945C401.406 469.895 402.014 468.639 402.398 467.26C402.684 465.945 402.863 464.594 402.933 463.23Z" fill="white"/>
<path d="M267.968 678.052C269.724 678.416 271.403 679.222 272.904 680.422C274.404 681.621 275.695 683.19 276.699 685.032C278.691 688.742 279.982 692.973 280.471 697.402C281.609 705.884 279.776 715.537 277.262 723.538C270.352 719.485 266.675 709.397 265.058 704.128C262.52 695.811 261.945 678.832 267.968 678.052Z" fill="#647CFC" fill-opacity="0.73"/>
<path d="M287.441 735.563C286.401 733.438 285.828 731.006 285.782 728.514C285.735 726.022 286.217 723.559 287.178 721.376C288.164 719.212 289.484 717.315 291.061 715.797C292.638 714.278 294.44 713.169 296.363 712.534C297.222 712.127 298.142 711.96 299.058 712.043C299.974 712.126 300.865 712.457 301.668 713.015C302.342 713.684 302.86 714.568 303.168 715.574C303.476 716.58 303.561 717.672 303.417 718.734C303.117 720.864 302.369 722.854 301.249 724.499C297.656 730.324 293.309 735.127 287.441 735.563Z" fill="#647CFC" fill-opacity="0.73"/>
<path d="M285.694 762.389C285.555 761.809 285.479 761.208 285.466 760.602C285.37 759.446 285.25 757.78 285.167 755.693C284.844 750.265 285.106 744.806 285.945 739.465C286.829 734.071 288.866 729.08 291.837 725.024C292.742 723.812 293.768 722.752 294.891 721.871C295.283 721.513 295.72 721.239 296.184 721.061C294.776 722.399 293.455 723.875 292.232 725.474C289.471 729.555 287.569 734.437 286.7 739.676C285.885 744.945 285.551 750.314 285.706 755.678C285.812 757.913 285.808 760.155 285.694 762.389Z" fill="#263238"/>
<path d="M269.623 690.931C269.985 691.819 270.277 692.75 270.497 693.708C271.012 695.51 271.694 698.137 272.569 701.395C274.269 707.925 276.497 716.977 278.76 727.05C281.023 737.123 282.903 746.326 284.161 752.991C284.796 756.324 285.287 758.996 285.598 760.918C285.807 761.901 285.947 762.906 286.017 763.92C285.715 762.997 285.478 762.043 285.311 761.068L283.634 753.216C282.233 746.596 280.281 737.439 278.029 727.381C275.778 717.322 273.622 708.225 272.042 701.665C271.287 698.497 270.676 695.87 270.197 693.874C269.946 692.913 269.754 691.929 269.623 690.931Z" fill="#263238"/>
<path d="M278.244 743.564C276.518 738.773 273.908 734.566 270.628 731.29C267.348 728.014 263.494 725.763 259.383 724.724C257.287 724.229 254.712 724.304 253.551 726.54C252.389 728.777 253.383 731.78 254.629 733.941C257.314 738.395 260.99 741.753 265.194 743.594C269.399 745.434 273.943 745.675 278.256 744.285" fill="#647CFC" fill-opacity="0.73"/>
<path d="M261.67 732.276C262.134 732.244 262.599 732.305 263.047 732.456C263.586 732.545 264.119 732.685 264.64 732.876C265.337 733.084 266.025 733.34 266.7 733.642C268.468 734.427 270.17 735.432 271.778 736.644C273.739 738.139 275.566 739.896 277.226 741.883C278.865 743.899 280.323 746.134 281.574 748.549C282.589 750.521 283.44 752.619 284.112 754.809C284.374 755.645 284.602 756.496 284.795 757.361C284.96 758.009 285.088 758.671 285.178 759.342C285.302 759.9 285.366 760.475 285.37 761.054C285.226 761.054 284.843 758.682 283.609 755.049C282.874 752.957 281.997 750.948 280.987 749.044C279.729 746.722 278.293 744.56 276.7 742.589C275.078 740.649 273.304 738.919 271.406 737.425C269.853 736.207 268.213 735.172 266.508 734.332C263.634 732.846 261.646 732.456 261.67 732.276Z" fill="#263238"/>
<path d="M623.879 322.564C617.027 299.187 591.015 277.527 566.122 277.527C545.285 271.517 517.195 282.717 506.047 294.777C491.403 310.622 482.073 332.555 488.067 353.083C494.06 373.611 510.862 390.569 531.28 398.198C554.535 406.901 582.504 403.33 601.863 388.032C621.222 372.733 630.752 345.941 623.879 322.564Z" fill="#6366F1"/>
<path opacity="0.8" d="M623.879 322.564C617.027 299.187 591.015 277.527 566.122 277.527C545.285 271.517 517.195 282.717 506.047 294.777C491.403 310.622 482.073 332.555 488.067 353.083C494.06 373.611 510.862 390.569 531.28 398.198C554.535 406.901 582.504 403.33 601.863 388.032C621.222 372.733 630.752 345.941 623.879 322.564Z" fill="white"/>
<path d="M588.097 357.317C588.072 357.097 588.072 356.874 588.097 356.654C588.097 356.166 588.097 355.541 588.097 354.702C588.097 352.985 588.097 350.585 587.997 347.521C587.997 341.238 587.877 332.301 587.797 321.295L587.997 321.627L556.032 303.733H556.531L524.666 321.725C524.426 322.134 524.965 321.198 524.905 321.295V339.97C524.905 345.98 524.905 351.814 524.905 357.415L524.666 357.005L556.491 375.074H556.112L579.446 362.118L585.879 358.605L587.577 357.707L588.197 357.415C588.039 357.553 587.865 357.671 587.677 357.766L586.059 358.722L579.786 362.371L556.491 375.718L556.311 375.836L556.112 375.718L524.146 357.825L523.906 357.688V357.415C523.906 351.814 523.906 345.98 523.906 339.97C523.906 336.965 523.906 333.92 523.906 330.818V321.393C523.906 321.49 524.406 320.554 524.186 320.944L556.152 302.992L556.411 302.855L556.651 302.992L588.476 321.061L588.676 321.178V321.393C588.676 332.457 588.536 341.453 588.496 347.775C588.496 350.819 588.496 353.2 588.397 354.917C588.397 355.659 588.397 356.283 588.397 356.751C588.397 357.22 588.097 357.337 588.097 357.317Z" fill="#6366F1"/>
<path d="M588.098 321.354C587.339 321.946 586.53 322.474 585.681 322.935L578.928 326.837C573.214 330.174 565.263 334.643 556.472 339.677H555.893H555.793L555.593 339.56L555.174 339.326L554.355 338.877L552.696 338.019L549.52 336.067L543.526 332.672L533.537 326.818L526.785 322.915C525.931 322.461 525.122 321.932 524.367 321.334C525.278 321.669 526.154 322.087 526.984 322.583L533.897 326.291L544.086 331.911L550.079 335.267L553.236 337.043L554.854 337.96L555.673 338.409L556.093 338.643L556.293 338.76H556.392H555.933C564.683 333.921 572.675 329.491 578.668 326.31L585.581 322.603C586.379 322.112 587.222 321.694 588.098 321.354Z" fill="#6366F1"/>
<path d="M556.251 374.86C555.737 368.89 555.563 362.897 555.732 356.908C555.563 350.919 555.737 344.926 556.251 338.956C556.777 344.925 556.951 350.919 556.771 356.908C556.951 362.897 556.777 368.891 556.251 374.86Z" fill="#6366F1"/>
<path fill-rule="evenodd" clip-rule="evenodd" d="M268.317 485.245C269.098 483.333 270.081 481.56 271.239 479.976L269.61 474.391L276.209 469.062L279.598 473.235C281.23 472.57 282.925 472.181 284.64 472.079L286.639 466.69L294.304 468.777V474.781C295.831 475.757 297.246 476.989 298.507 478.444L302.974 476.403L307.214 484.674L303.896 488.923C304.423 490.964 304.729 493.085 304.806 495.228L309.106 497.75L307.441 507.358H302.651C301.873 509.269 300.894 511.041 299.741 512.627L301.358 518.211L294.759 523.541L291.37 519.382C289.74 520.037 288.049 520.421 286.34 520.523L284.34 525.913L276.664 523.826V517.821C275.141 516.842 273.728 515.615 272.46 514.173L268.053 516.23L263.802 507.958L267.131 503.71C266.599 501.67 266.289 499.549 266.209 497.405L261.91 494.898L263.575 485.275H268.365L268.317 485.245ZM277.382 493.637C277.041 495.666 277.186 497.777 277.8 499.703C278.413 501.629 279.468 503.285 280.83 504.461C282.193 505.637 283.803 506.282 285.457 506.313C287.112 506.345 288.737 505.762 290.127 504.638C291.518 503.514 292.612 501.899 293.272 499.997C293.932 498.095 294.128 495.991 293.836 493.95C293.544 491.908 292.776 490.021 291.63 488.525C290.483 487.03 289.01 485.993 287.394 485.545C286.308 485.246 285.186 485.221 284.093 485.471C282.999 485.721 281.956 486.241 281.024 487.001C280.093 487.761 279.291 488.746 278.666 489.898C278.04 491.05 277.604 492.346 277.382 493.712V493.637Z" fill="#6366F1"/>
<path opacity="0.5" fill-rule="evenodd" clip-rule="evenodd" d="M268.317 485.245C269.098 483.333 270.081 481.56 271.239 479.976L269.61 474.391L276.209 469.062L279.598 473.235C281.23 472.57 282.925 472.181 284.64 472.079L286.639 466.69L294.304 468.777V474.781C295.831 475.757 297.246 476.989 298.507 478.444L302.974 476.403L307.214 484.674L303.896 488.923C304.423 490.964 304.729 493.085 304.806 495.228L309.106 497.75L307.441 507.358H302.651C301.873 509.269 300.894 511.041 299.741 512.627L301.358 518.211L294.759 523.541L291.37 519.382C289.74 520.037 288.049 520.421 286.34 520.523L284.34 525.913L276.664 523.826V517.821C275.141 516.842 273.728 515.615 272.46 514.173L268.053 516.23L263.802 507.958L267.131 503.71C266.599 501.67 266.289 499.549 266.209 497.405L261.91 494.898L263.575 485.275H268.365L268.317 485.245ZM277.382 493.637C277.041 495.666 277.186 497.777 277.8 499.703C278.413 501.629 279.468 503.285 280.83 504.461C282.193 505.637 283.803 506.282 285.457 506.313C287.112 506.345 288.737 505.762 290.127 504.638C291.518 503.514 292.612 501.899 293.272 499.997C293.932 498.095 294.128 495.991 293.836 493.95C293.544 491.908 292.776 490.021 291.63 488.525C290.483 487.03 289.01 485.993 287.394 485.545C286.308 485.246 285.186 485.221 284.093 485.471C282.999 485.721 281.956 486.241 281.024 487.001C280.093 487.761 279.291 488.746 278.666 489.898C278.04 491.05 277.604 492.346 277.382 493.712V493.637Z" fill="white"/>
<path d="M289.257 434.747V449.24H94.0063V291.204H107.029" fill="#6366F1"/>
<path opacity="0.8" d="M289.257 434.747V449.24H94.0063V291.204H107.029" fill="white"/>
<path d="M302.885 275.932H107.635V433.984H302.885V275.932Z" fill="white"/>
<path d="M302.887 433.968C302.887 433.968 302.887 432.977 302.887 431.092C302.887 429.207 302.887 426.396 302.887 422.757C302.887 415.446 302.887 404.706 302.887 390.978C302.887 363.504 302.806 324.039 302.739 275.931L303.021 276.256L107.784 276.354L108.133 275.931C108.133 332.228 108.133 385.762 108.133 433.968L107.811 433.578L248.47 433.773L288.667 433.87H299.352H302.107H303.061H302.147H299.459H288.829L248.711 433.968L107.837 434.163H107.515V433.773C107.515 385.567 107.515 332.033 107.515 275.737V275.298H107.878L303.115 275.395H303.397V275.737C303.33 323.942 303.276 363.471 303.249 390.978C303.249 404.69 303.249 415.348 303.182 422.692C303.182 426.315 303.182 429.093 303.182 430.978C303.182 432.863 302.887 433.968 302.887 433.968Z" fill="#6366F1"/>
<path d="M107.635 290.034C107.635 289.79 151.314 289.611 205.166 289.611C259.019 289.611 302.724 289.79 302.724 290.034C302.724 290.277 259.059 290.456 205.166 290.456C151.273 290.456 107.635 290.261 107.635 290.034Z" fill="#6366F1"/>
<path d="M115.337 282.918C115.337 283.294 115.244 283.661 115.072 283.974C114.899 284.286 114.653 284.53 114.366 284.674C114.079 284.818 113.762 284.855 113.457 284.782C113.152 284.709 112.872 284.528 112.652 284.262C112.432 283.996 112.283 283.657 112.222 283.288C112.161 282.92 112.192 282.537 112.311 282.19C112.43 281.843 112.632 281.546 112.89 281.337C113.149 281.128 113.453 281.017 113.764 281.017C113.971 281.015 114.176 281.062 114.368 281.157C114.56 281.252 114.734 281.392 114.88 281.569C115.026 281.746 115.142 281.956 115.22 282.188C115.299 282.419 115.338 282.667 115.337 282.918Z" fill="#6366F1"/>
<path d="M120.698 282.918C120.698 283.294 120.606 283.661 120.433 283.974C120.26 284.286 120.014 284.53 119.727 284.674C119.44 284.818 119.124 284.855 118.819 284.782C118.514 284.709 118.233 284.528 118.014 284.262C117.794 283.996 117.644 283.657 117.583 283.288C117.523 282.92 117.554 282.537 117.673 282.19C117.792 281.843 117.993 281.546 118.252 281.337C118.51 281.128 118.814 281.017 119.125 281.017C119.332 281.015 119.538 281.062 119.729 281.157C119.921 281.252 120.095 281.392 120.241 281.569C120.388 281.746 120.503 281.956 120.582 282.188C120.66 282.419 120.7 282.667 120.698 282.918Z" fill="#6366F1"/>
<path d="M125.979 282.918C125.979 283.294 125.887 283.662 125.713 283.975C125.54 284.288 125.294 284.532 125.006 284.675C124.717 284.819 124.401 284.855 124.095 284.781C123.79 284.706 123.51 284.523 123.29 284.256C123.071 283.988 122.922 283.648 122.863 283.278C122.804 282.909 122.837 282.526 122.958 282.179C123.079 281.832 123.283 281.536 123.543 281.329C123.803 281.122 124.109 281.013 124.42 281.017C124.626 281.017 124.83 281.066 125.02 281.162C125.21 281.257 125.383 281.398 125.528 281.574C125.672 281.751 125.787 281.961 125.865 282.191C125.942 282.422 125.981 282.669 125.979 282.918Z" fill="#6366F1"/>
<g opacity="0.6">
<path d="M115.336 282.918C115.336 283.294 115.244 283.662 115.071 283.974C114.898 284.287 114.653 284.53 114.365 284.674C114.078 284.818 113.762 284.856 113.457 284.782C113.152 284.709 112.872 284.528 112.652 284.262C112.432 283.996 112.282 283.658 112.221 283.289C112.161 282.92 112.192 282.538 112.311 282.191C112.43 281.843 112.632 281.546 112.89 281.338C113.149 281.129 113.453 281.017 113.764 281.017C113.971 281.015 114.176 281.063 114.368 281.157C114.559 281.252 114.733 281.392 114.88 281.569C115.026 281.746 115.142 281.956 115.22 282.188C115.298 282.42 115.338 282.668 115.336 282.918Z" fill="white"/>
<path d="M120.697 282.918C120.697 283.294 120.605 283.661 120.432 283.974C120.26 284.286 120.014 284.53 119.727 284.674C119.439 284.818 119.123 284.855 118.818 284.782C118.513 284.709 118.233 284.528 118.013 284.262C117.793 283.996 117.643 283.657 117.583 283.288C117.522 282.92 117.553 282.537 117.672 282.19C117.791 281.843 117.993 281.546 118.251 281.337C118.51 281.128 118.814 281.017 119.125 281.017C119.332 281.015 119.537 281.062 119.729 281.157C119.92 281.252 120.095 281.392 120.241 281.569C120.387 281.746 120.503 281.956 120.581 282.188C120.66 282.419 120.699 282.667 120.697 282.918Z" fill="white"/>
<path d="M125.979 282.918C125.979 283.294 125.886 283.662 125.713 283.975C125.54 284.288 125.293 284.532 125.005 284.675C124.717 284.819 124.4 284.855 124.095 284.781C123.789 284.706 123.509 284.523 123.29 284.256C123.07 283.988 122.922 283.648 122.863 283.278C122.803 282.909 122.836 282.526 122.958 282.179C123.079 281.832 123.282 281.536 123.543 281.329C123.803 281.122 124.108 281.013 124.42 281.017C124.626 281.017 124.83 281.066 125.02 281.162C125.21 281.257 125.382 281.398 125.527 281.574C125.672 281.751 125.787 281.961 125.864 282.191C125.942 282.422 125.981 282.669 125.979 282.918Z" fill="white"/>
</g>
<g opacity="0.3">
<path d="M176.5 306.508H124.422V369.466H176.5V306.508Z" fill="#6366F1"/>
</g>
<path d="M276.114 324.3C276.114 324.544 255.793 324.722 230.742 324.722C205.691 324.722 185.37 324.544 185.37 324.3C185.37 324.056 205.677 323.877 230.742 323.877C255.807 323.877 276.114 324.072 276.114 324.3Z" fill="#6366F1"/>
<path d="M276.114 336.014C276.114 336.241 255.793 336.436 230.742 336.436C205.691 336.436 185.37 336.241 185.37 336.014C185.37 335.786 205.677 335.591 230.742 335.591C255.807 335.591 276.114 335.77 276.114 336.014Z" fill="#6366F1"/>
<path d="M276.114 347.711C276.114 347.939 255.793 348.134 230.742 348.134C205.691 348.134 185.37 347.939 185.37 347.711C185.37 347.484 205.677 347.289 230.742 347.289C255.807 347.289 276.114 347.468 276.114 347.711Z" fill="#6366F1"/>
<path d="M238.994 359.409C238.301 359.542 237.599 359.596 236.897 359.571L231.145 359.701C226.293 359.701 219.587 359.831 212.182 359.831C204.777 359.831 198.084 359.831 193.232 359.701L187.48 359.506C186.774 359.53 186.068 359.476 185.37 359.344C186.068 359.212 186.774 359.157 187.48 359.181L193.232 359.051C198.084 358.97 204.777 358.921 212.182 358.921C219.587 358.921 226.293 358.921 231.145 359.051L236.897 359.181C237.601 359.178 238.302 359.254 238.994 359.409Z" fill="#6366F1"/>
<path d="M152.147 390.701H127.674V420.287H152.147V390.701Z" fill="#6366F1"/>
<path opacity="0.6" d="M152.147 390.701H127.674V420.287H152.147V390.701Z" fill="white"/>
<path d="M196.537 390.701H172.064V420.287H196.537V390.701Z" fill="#6366F1"/>
<path opacity="0.6" d="M196.537 390.701H172.064V420.287H196.537V390.701Z" fill="white"/>
<path d="M240.927 390.701H216.454V420.287H240.927V390.701Z" fill="#6366F1"/>
<path opacity="0.6" d="M240.927 390.701H216.454V420.287H240.927V390.701Z" fill="white"/>
<path d="M285.318 390.701H260.844V420.287H285.318V390.701Z" fill="#6366F1"/>
<path opacity="0.6" d="M285.318 390.701H260.844V420.287H285.318V390.701Z" fill="white"/>
<path d="M679.663 598.714H458.648V707.245H679.663V598.714Z" fill="white"/>
<path d="M679.676 707.197C679.676 707.197 679.676 706.531 679.676 705.263C679.676 703.996 679.676 702.095 679.676 699.626C679.676 694.67 679.676 687.408 679.609 678.033C679.609 659.3 679.528 632.2 679.474 598.666L679.73 598.974L458.729 599.088L459.092 598.666C459.092 636.684 459.092 673.403 459.092 707.197L458.756 706.791L617.168 707.034L663.145 707.148H675.443H678.628H679.73H678.668H675.523H663.293L617.397 707.262L458.702 707.457H458.379V707.197C458.379 673.354 458.379 636.684 458.379 598.666V598.341H458.756L679.757 598.471H679.999V598.763C679.999 632.379 679.891 659.528 679.864 678.374C679.864 687.716 679.864 694.963 679.864 699.902C679.864 702.339 679.864 704.207 679.864 705.475C679.864 706.742 679.676 707.197 679.676 707.197Z" fill="#6366F1"/>
<path d="M458.877 613.353C458.877 613.125 508.281 612.93 569.203 612.93C630.125 612.93 679.542 613.125 679.542 613.353C679.542 613.58 630.152 613.775 569.203 613.775C508.255 613.775 458.877 613.596 458.877 613.353Z" fill="#6366F1"/>
<path d="M468.125 606.805C468.125 607.188 468.031 607.562 467.855 607.88C467.679 608.198 467.43 608.445 467.137 608.592C466.845 608.738 466.524 608.776 466.213 608.702C465.903 608.627 465.618 608.443 465.394 608.173C465.171 607.902 465.018 607.558 464.957 607.183C464.895 606.808 464.927 606.419 465.048 606.066C465.169 605.712 465.374 605.41 465.637 605.198C465.9 604.985 466.209 604.872 466.525 604.872C466.95 604.872 467.356 605.076 467.656 605.438C467.956 605.801 468.125 606.293 468.125 606.805Z" fill="#6366F1"/>
<path d="M473.622 606.806C473.616 607.187 473.518 607.557 473.339 607.871C473.16 608.185 472.909 608.427 472.616 608.569C472.323 608.71 472.002 608.744 471.694 608.665C471.386 608.587 471.103 608.401 470.882 608.129C470.661 607.857 470.511 607.513 470.452 607.139C470.392 606.765 470.426 606.377 470.547 606.026C470.669 605.675 470.874 605.375 471.137 605.164C471.399 604.953 471.707 604.84 472.022 604.84C472.235 604.84 472.445 604.891 472.64 604.99C472.836 605.089 473.014 605.235 473.163 605.418C473.312 605.601 473.429 605.818 473.508 606.056C473.586 606.294 473.625 606.549 473.622 606.806Z" fill="#6366F1"/>
<path d="M479.039 606.805C479.033 607.184 478.936 607.552 478.759 607.865C478.582 608.177 478.332 608.42 478.042 608.563C477.752 608.706 477.433 608.742 477.126 608.668C476.818 608.593 476.536 608.411 476.313 608.145C476.091 607.878 475.938 607.538 475.874 607.167C475.81 606.796 475.838 606.41 475.953 606.058C476.069 605.706 476.268 605.403 476.525 605.186C476.782 604.969 477.086 604.849 477.399 604.839C477.615 604.832 477.829 604.879 478.03 604.975C478.23 605.071 478.413 605.215 478.566 605.399C478.719 605.583 478.84 605.802 478.921 606.044C479.002 606.285 479.042 606.544 479.039 606.805Z" fill="#6366F1"/>
<g opacity="0.6">
<path d="M468.125 606.805C468.125 607.187 468.031 607.561 467.855 607.879C467.68 608.197 467.43 608.445 467.138 608.591C466.845 608.738 466.524 608.776 466.214 608.701C465.903 608.627 465.618 608.443 465.395 608.172C465.171 607.902 465.019 607.557 464.957 607.182C464.895 606.807 464.927 606.418 465.048 606.065C465.169 605.712 465.374 605.41 465.637 605.197C465.9 604.985 466.209 604.872 466.526 604.872C466.95 604.872 467.357 605.075 467.656 605.438C467.956 605.8 468.125 606.292 468.125 606.805Z" fill="white"/>
<path d="M473.622 606.804C473.616 607.185 473.518 607.556 473.339 607.869C473.16 608.183 472.909 608.426 472.616 608.567C472.323 608.709 472.003 608.742 471.694 608.664C471.386 608.586 471.103 608.399 470.882 608.127C470.661 607.856 470.512 607.511 470.452 607.137C470.393 606.763 470.426 606.376 470.548 606.025C470.669 605.673 470.874 605.373 471.137 605.162C471.399 604.951 471.707 604.838 472.022 604.838C472.235 604.838 472.445 604.889 472.641 604.989C472.837 605.088 473.014 605.233 473.163 605.416C473.312 605.599 473.429 605.816 473.508 606.054C473.587 606.293 473.625 606.548 473.622 606.804Z" fill="white"/>
<path d="M479.037 606.805C479.031 607.184 478.934 607.552 478.757 607.865C478.579 608.177 478.33 608.42 478.04 608.563C477.749 608.706 477.431 608.742 477.124 608.668C476.816 608.593 476.534 608.411 476.311 608.145C476.089 607.878 475.936 607.538 475.872 607.167C475.808 606.796 475.835 606.41 475.951 606.058C476.067 605.706 476.265 605.403 476.522 605.186C476.779 604.969 477.084 604.849 477.397 604.839C477.613 604.832 477.827 604.879 478.028 604.975C478.228 605.071 478.41 605.215 478.564 605.399C478.717 605.583 478.838 605.802 478.919 606.044C479 606.285 479.04 606.544 479.037 606.805Z" fill="white"/>
</g>
<path d="M530.821 630.997H477.438V695.53H530.821V630.997Z" fill="#6366F1"/>
<path opacity="0.6" d="M530.821 630.997H477.438V695.53H530.821V630.997Z" fill="white"/>
<path d="M664.382 648.284C664.382 648.528 636.912 648.707 603.03 648.707C569.149 648.707 541.678 648.528 541.678 648.284C541.678 648.041 569.136 647.862 603.03 647.862C636.925 647.862 664.382 648.057 664.382 648.284Z" fill="#6366F1"/>
<path d="M664.382 661.444C664.382 661.672 636.912 661.867 603.03 661.867C569.149 661.867 541.678 661.672 541.678 661.444C541.678 661.217 569.136 661.022 603.03 661.022C636.925 661.022 664.382 661.201 664.382 661.444Z" fill="#6366F1"/>
<path d="M620.663 674.588C620.397 674.65 620.127 674.677 619.857 674.67H617.559L609.092 674.8L581.164 674.93L553.237 674.8L544.77 674.67H542.471C542.205 674.678 541.94 674.651 541.678 674.588C541.938 674.516 542.205 674.488 542.471 674.507L544.77 674.426L553.237 674.28L581.164 674.166L609.092 674.28L617.559 674.426L619.857 674.507C620.127 674.489 620.399 674.517 620.663 674.588Z" fill="#6366F1"/>
<defs>
<linearGradient id="paint0_linear_0_1" x1="378.5" y1="714" x2="378.5" y2="33" gradientUnits="userSpaceOnUse">
<stop stop-color="#6366F1" stop-opacity="0.08"/>
<stop offset="1" stop-color="#6366F1"/>
</linearGradient>
</defs>
</svg>
