<svg width="150" height="150" viewBox="0 0 150 150" fill="none" xmlns="http://www.w3.org/2000/svg">
<rect width="150" height="150" rx="75" fill="#1E1B4B"/>
<path d="M100.929 75.9879L92.2884 72.8012C85.2925 70.2213 79.7777 64.707 77.1984 57.7116L74.0112 49.07C73.8913 48.7452 73.5816 48.5294 73.2353 48.5294C72.889 48.5294 72.5792 48.7452 72.4594 49.07L69.2722 57.7111C66.6924 64.707 61.1776 70.2213 54.1822 72.8012L45.5406 75.9879C45.2158 76.1077 45 76.4175 45 76.7637C45 77.11 45.2158 77.4198 45.5406 77.5396L54.1827 80.7273C61.1781 83.3072 66.6924 88.8214 69.2722 95.8168L72.4594 104.459C72.5792 104.784 72.889 105 73.2353 105C73.5816 105 73.8913 104.784 74.0112 104.459L77.1984 95.8168C79.7782 88.8214 85.2925 83.3067 92.2879 80.7273L100.93 77.5396C101.255 77.4198 101.471 77.11 101.471 76.7637C101.471 76.4175 101.254 76.1077 100.929 75.9879Z" fill="#FFD700"/>
<path d="M104.831 53.5802L102.13 52.5839C99.944 51.7778 98.2209 50.0547 97.4147 47.8689L96.4185 45.1689C96.3813 45.0674 96.2843 45 96.1761 45C96.0679 45 95.971 45.0674 95.9337 45.1689L94.9375 47.8689C94.1313 50.055 92.4082 51.7781 90.2225 52.5839L87.5218 53.5802C87.4203 53.6174 87.3529 53.7144 87.3529 53.8226C87.3529 53.9308 87.4203 54.0277 87.5218 54.065L90.2222 55.0612C92.4085 55.8674 94.1316 57.5908 94.9378 59.7768L95.934 62.4772C95.9713 62.5787 96.0682 62.6461 96.1764 62.6461C96.2846 62.6461 96.3816 62.5787 96.4188 62.4772L97.4151 59.7768C98.2212 57.5908 99.9443 55.8674 102.131 55.0612L104.831 54.065C104.933 54.0277 105 53.9308 105 53.8226C105 53.7144 104.933 53.6174 104.831 53.5802Z" fill="#FFD700"/>
</svg>
