<svg width="416" height="323" viewBox="0 0 416 323" fill="none" xmlns="http://www.w3.org/2000/svg">
<path d="M11.7181 281.364C11.4909 276.257 58.3267 270.026 116.327 267.446C168.053 265.145 211.154 266.528 220.046 270.472L225.938 270.21C325.699 265.773 406.99 271.676 407.512 283.393C408.033 295.111 327.586 308.2 227.825 312.637C128.064 317.074 46.7718 311.155 46.2524 299.477C46.0697 295.368 55.8577 291.117 72.9326 287.074C36.9245 287.2 11.8832 285.077 11.7181 281.364Z" fill="#6366F1"/>
<path opacity="0.4" d="M11.7181 281.364C11.4909 276.257 58.3267 270.026 116.327 267.446C168.053 265.145 211.154 266.528 220.046 270.472L225.938 270.21C325.699 265.773 406.99 271.676 407.512 283.393C408.033 295.111 327.586 308.2 227.825 312.637C128.064 317.074 46.7718 311.155 46.2524 299.477C46.0697 295.368 55.8577 291.117 72.9326 287.074C36.9245 287.2 11.8832 285.077 11.7181 281.364Z" fill="white"/>
<path d="M169.615 209.587L330.778 173.386C333.08 172.863 335.078 171.472 336.335 169.518C337.593 167.563 338.006 165.205 337.486 162.957L316.552 73.4562C316.021 71.2113 314.6 69.2648 312.599 68.0426C310.599 66.8204 308.182 66.4219 305.878 66.9343L144.716 103.152C142.414 103.675 140.415 105.065 139.158 107.02C137.901 108.974 137.487 111.333 138.008 113.58L158.942 203.081C159.477 205.323 160.899 207.265 162.899 208.484C164.899 209.703 167.313 210.1 169.615 209.587Z" fill="#271F4B" stroke="#271F4B" stroke-width="1.35048" stroke-linecap="round" stroke-linejoin="round"/>
<path d="M167.234 98.105C179.101 103.844 192.901 108.434 207.125 108.666C246.143 109.31 261.912 91.4428 305.483 94.9785C311.119 95.4349 316.709 96.3161 322.204 97.614L331.179 135.974C319.021 127.858 305.179 122.448 290.631 120.127C252.028 114.007 236.6 128.567 201.822 125.283C181.196 123.337 162.294 111.334 150.327 101.895L167.234 98.105Z" fill="#6366F1" stroke="#271F4B" stroke-width="1.35048" stroke-linecap="round" stroke-linejoin="round"/>
<path d="M319.796 87.3531C318.253 87.041 316.685 86.6982 315.082 86.484C276.47 80.3559 261.042 94.9163 226.273 91.6397C220.98 91.1198 215.765 90.0213 210.727 88.3648L304.922 67.1994C307.488 66.6225 310.182 67.0634 312.411 68.4251C314.64 69.7869 316.222 71.9579 316.808 74.4606L319.796 87.3531Z" fill="#6366F1" stroke="#271F4B" stroke-width="1.35048" stroke-linecap="round" stroke-linejoin="round"/>
<path d="M288.688 98.1241L301.232 95.3044C303.043 94.8973 304.846 95.9988 305.259 97.7646L307.975 109.372C308.389 111.138 307.256 112.899 305.445 113.306L292.901 116.126C291.09 116.533 289.287 115.431 288.874 113.665L286.158 102.058C285.745 100.293 286.877 98.5311 288.688 98.1241Z" fill="white" stroke="#271F4B" stroke-width="1.35048" stroke-linecap="round" stroke-linejoin="round"/>
<path d="M295.069 103.244L297.777 102.635C298.665 102.435 299.549 102.975 299.752 103.841L300.325 106.289C300.527 107.155 299.972 108.019 299.084 108.218L296.375 108.827C295.487 109.027 294.603 108.487 294.401 107.621L293.828 105.173C293.625 104.307 294.181 103.443 295.069 103.244Z" fill="white" stroke="#271F4B" stroke-width="1.35048" stroke-linecap="round" stroke-linejoin="round"/>
<path d="M304.985 96.579L299.348 97.845C299.089 97.9024 298.843 98.0093 298.626 98.1597C298.409 98.31 298.224 98.5008 298.083 98.7209C297.941 98.9411 297.846 99.1863 297.802 99.4425C297.758 99.6986 297.767 99.9605 297.827 100.213L298.351 102.482" stroke="#271F4B" stroke-width="1.35048" stroke-linecap="round" stroke-linejoin="round"/>
<path d="M285.879 100.871L291.411 99.6337C291.67 99.5752 291.938 99.567 292.2 99.6097C292.462 99.6523 292.713 99.745 292.938 99.8823C293.163 100.02 293.358 100.199 293.512 100.41C293.666 100.621 293.776 100.86 293.835 101.112L294.367 103.381" stroke="#271F4B" stroke-width="1.35048" stroke-linecap="round" stroke-linejoin="round"/>
<path d="M308.288 110.703L302.692 111.968C302.169 112.084 301.621 111.993 301.167 111.716C300.713 111.439 300.39 110.998 300.268 110.489L299.736 108.22" stroke="#271F4B" stroke-width="1.35048" stroke-linecap="round" stroke-linejoin="round"/>
<path d="M289.191 115.003L294.714 113.758C295.236 113.638 295.689 113.322 295.974 112.878C296.259 112.435 296.353 111.9 296.235 111.39L295.711 109.105" stroke="#271F4B" stroke-width="1.35048" stroke-linecap="round" stroke-linejoin="round"/>
<path d="M306.681 104.008L300.127 105.481" stroke="#271F4B" stroke-width="1.35048" stroke-linecap="round" stroke-linejoin="round"/>
<path d="M294.371 106.776L287.817 108.25" stroke="#271F4B" stroke-width="1.35048" stroke-linecap="round" stroke-linejoin="round"/>
<path d="M183.767 197.058C181.397 197.591 178.91 197.183 176.851 195.926C174.793 194.668 173.333 192.663 172.793 190.352C172.252 188.04 172.675 185.612 173.969 183.601C175.263 181.591 177.321 180.162 179.691 179.629L191.824 176.9C194.194 176.368 196.681 176.775 198.74 178.033C200.798 179.291 202.258 181.296 202.798 183.607C203.339 185.918 202.916 188.346 201.622 190.357C200.328 192.368 198.27 193.797 195.9 194.329L183.767 197.058Z" fill="white"/>
<path d="M181.691 88.9425C181.691 88.9425 148.803 85.1697 144.488 85.6076C140.174 86.0454 104.125 96.7713 104.125 96.7713C103.622 98.9211 103.46 101.133 103.644 103.329C103.997 106.693 108.028 111.955 108.028 111.955L144.763 93.7898L179.25 93.8424L181.691 88.9425Z" fill="white" stroke="#271F4B" stroke-width="1.35048" stroke-linecap="round" stroke-linejoin="round"/>
<path d="M179.25 93.826C179.25 93.826 187.445 96.1903 188.698 96.0235C189.62 95.8952 194.033 95.4927 196.301 95.2887C197.072 95.2544 197.835 95.2205 197.832 94.4273C197.836 94.0709 197.705 93.7258 197.466 93.4573C197.226 93.1888 196.893 93.0155 196.531 92.9701L193.547 92.603C193.547 92.603 203.757 90.7052 204.483 89.483C205.209 88.2608 200.332 89.0172 199.073 88.8669C197.119 88.6286 187.394 89.1801 187.394 89.1801L181.69 88.9102L179.25 93.826Z" fill="#FBC2AA" stroke="#271F4B" stroke-width="1.35048" stroke-linecap="round" stroke-linejoin="round"/>
<path d="M135.677 66.505C133.134 67.8986 131.284 70.5318 131.586 73.4162L132.032 77.6742C132.157 78.8683 131.352 79.9615 130.175 80.1973C129.196 80.3934 128.452 81.1923 128.278 82.1755C128.026 83.6079 127.59 85.6579 126.989 87.003C126.535 88.0185 125.581 88.8077 124.538 89.1948C122.714 89.8721 119.679 90.304 117.484 90.5451C115.786 90.7316 114.211 91.5597 113.16 92.9063L112.274 94.0417C110.862 95.8515 108.317 96.3162 106.356 95.1227C104.229 93.8277 103.548 91.0564 104.834 88.9232L105.119 88.4492C105.737 87.4248 105.974 86.2249 105.795 85.0423C104.995 79.7547 102.787 64.5229 103.279 60.5481C103.877 55.7143 106.797 54.2755 113.54 53.5949C115.071 53.4508 116.607 53.4229 118.134 53.5098C120.848 53.6643 127.991 51.104 130.709 51.1178C137.915 51.1542 140.962 58.5944 139.846 62.3962C139.346 64.1005 137.529 65.4903 135.677 66.505Z" fill="#FBC2AA" stroke="#271F4B" stroke-width="1.35048" stroke-linecap="round" stroke-linejoin="round"/>
<path d="M103.279 60.5483C103.916 55.681 106.797 54.2757 113.54 53.595C117.679 53.2055 119.819 51.9971 123.761 53.2772C123.761 53.2772 123.503 51.0815 130.709 51.118C137.915 51.1544 140.962 58.5946 139.846 62.3964C138.73 66.1981 130.993 68.4778 130.993 68.4778C130.993 68.4778 121.538 68.6921 116.695 65.8534C116.695 65.8534 120.13 69.9446 119.67 72.5749C119.613 72.9216 119.486 73.2539 119.295 73.552C119.105 73.8501 118.855 74.108 118.561 74.3105C118.266 74.5129 117.933 74.6558 117.582 74.7306C117.23 74.8054 116.867 74.8107 116.514 74.7461L115.771 78.5233C115.771 78.5233 113.634 79.8479 113.14 78.791C112.646 77.7342 112.497 72.5687 109.706 74.6998C106.914 76.831 106.899 80.5282 108.519 81.4795C110.139 82.4307 111.182 81.5752 110.253 83.8932C109.323 86.2112 106.012 86.9059 106.012 86.9059C106.012 86.9059 102.68 65.3821 103.279 60.5483Z" fill="#271F4B" stroke="#271F4B" stroke-width="1.35048" stroke-linecap="round" stroke-linejoin="round"/>
<path d="M125.281 85.7475C125.281 85.7475 122.205 85.8843 120.881 83.7067" stroke="#271F4B" stroke-width="1.35048" stroke-linecap="round" stroke-linejoin="round"/>
<path d="M92.0798 162.521L90.7703 166.902C90.7703 166.902 117.492 182.666 124.6 189.1C131.708 195.535 138.401 201.583 137.893 204.969C137.385 208.355 131.658 256.92 131.658 256.92L121.71 256.664C121.71 256.664 118.992 209.824 117.585 208.704C116.177 207.585 75.7693 183.934 75.7693 183.934C75.7693 183.934 72.2675 183.447 70.6454 184.456C69.0233 185.464 61.3471 219.464 58.9607 221.386C56.5743 223.309 26.9149 261.785 26.9149 261.785L18.5461 260.102C18.5461 260.102 43.9767 210.281 43.9197 208.998C43.8393 208.288 48.6304 181.818 53.9657 164.66C57.9712 151.79 62.9347 146.928 62.9347 146.928L92.0798 162.521Z" fill="#271F4B" stroke="#271F4B" stroke-width="1.35048" stroke-linecap="round" stroke-linejoin="round"/>
<path d="M64.3322 151.657C64.3322 151.657 59.5648 160.929 57.456 164.338C55.3471 167.748 55.369 175.735 55.369 175.735C55.369 175.735 45.527 207.11 44.8491 212.344C44.1712 217.578 20.3205 259.96 20.3205 259.96" stroke="white" stroke-width="0.67524" stroke-linecap="round" stroke-linejoin="round"/>
<path d="M89.8953 177.031L75.7614 183.943L85.9307 182.229" stroke="white" stroke-width="0.67524" stroke-linecap="round" stroke-linejoin="round"/>
<path d="M110.519 198.111L121.392 208.194C121.392 208.194 130.314 207.694 127.639 209.162C125.601 210.368 123.689 211.765 121.929 213.334L123.786 255.08" stroke="white" stroke-width="0.67524" stroke-linecap="round" stroke-linejoin="round"/>
<path d="M80.7119 159.592L79.4207 162.917" stroke="white" stroke-width="0.67524" stroke-linecap="round" stroke-linejoin="round"/>
<path d="M71.549 154.121L69.8111 157.093" stroke="white" stroke-width="0.67524" stroke-linecap="round" stroke-linejoin="round"/>
<path d="M111.32 98.7433C111.32 98.7433 112.951 106.151 110.797 118.598C108.642 131.045 92.0816 162.552 92.0816 162.552L89.1909 162.094C81.0409 160.781 73.5007 157.074 67.5767 151.466L62.8653 147.003C62.8653 147.003 77.7698 116.466 83.5026 104.954C89.2355 93.4429 99.4509 92.4015 102.446 92.1017C105.441 91.8019 111.578 97.0343 111.32 98.7433Z" fill="white" stroke="#271F4B" stroke-width="1.35048" stroke-linecap="round" stroke-linejoin="round"/>
<path d="M92.973 124.468C92.973 124.468 85.969 118.553 82.4878 115.788" stroke="#271F4B" stroke-width="0.67524" stroke-linecap="round" stroke-linejoin="round"/>
<path d="M82.5318 124.281C81.8515 124.155 81.1792 123.992 80.5181 123.792" stroke="#271F4B" stroke-width="0.67524" stroke-linecap="round" stroke-linejoin="round"/>
<path d="M94.9901 124.664C91.7167 124.957 88.4234 124.958 85.1512 124.665" stroke="#271F4B" stroke-width="0.67524" stroke-linecap="round" stroke-linejoin="round"/>
<path d="M101.656 88.7814L115.028 97.1029L111.62 101.657L99.02 92.4128L101.656 88.7814Z" fill="white" stroke="#271F4B" stroke-width="1.35048" stroke-linecap="round" stroke-linejoin="round"/>
<path d="M87.6407 111.164C88.2853 115.419 101.304 151.632 102.821 152.651C104.338 153.67 151.776 163.721 151.776 163.721L154.161 159.926L113.009 142.203L102.625 104.35" fill="white"/>
<path d="M87.6407 111.164C88.2853 115.419 101.304 151.632 102.821 152.651C104.338 153.67 151.776 163.721 151.776 163.721L154.161 159.926L113.009 142.203L102.625 104.35" stroke="#271F4B" stroke-width="1.35048" stroke-linecap="round" stroke-linejoin="round"/>
<path d="M151.593 163.983L154.184 159.901L167.516 156.722C167.729 156.655 167.96 156.673 168.159 156.772C168.358 156.871 168.508 157.043 168.576 157.25C168.645 157.458 168.626 157.683 168.524 157.877C168.422 158.072 168.246 158.218 168.033 158.286L163.188 160.508L166.87 163.224C167.92 163.971 172.424 166.325 172.8 167.299C173.527 169.195 170.811 167.729 170.152 167.528C168.693 167.085 167.756 166.493 165.305 165.681C164.862 166.328 170.448 169.062 171.094 169.517C171.371 169.703 171.804 169.938 171.845 170.317C171.992 171.793 169.409 170.385 168.789 170.167C167.054 169.546 165.348 168.852 163.621 168.231C164.844 169.041 166.876 169.935 168.107 170.745C168.671 171.024 169.213 171.345 169.728 171.704C170.364 172.294 169.882 172.99 168.961 172.761C167.97 172.411 167.01 171.982 166.091 171.477C164.695 170.817 163.912 170.194 162.516 169.534C163.54 170.242 164.043 170.775 165.042 171.476C165.436 171.752 166.335 172.212 166.542 172.663C167.237 174.218 163.545 172.185 163.126 171.918C161.67 170.991 159.979 170.257 158.609 169.263C158.416 169.121 156.358 167.285 156.343 167.302L151.593 163.983Z" fill="#FBC2AA" stroke="#271F4B" stroke-width="0.67524" stroke-linecap="round" stroke-linejoin="round"/>
<path d="M112.203 109.675L119.05 98.8676" stroke="#271F4B" stroke-width="0.67524" stroke-linecap="round" stroke-linejoin="round"/>
<path d="M112.951 109.3L120.802 102.256" stroke="#271F4B" stroke-width="0.67524" stroke-linecap="round" stroke-linejoin="round"/>
<path d="M131.659 256.952L132.425 257.711L137.825 262.857C137.825 262.857 149.62 266.434 149.788 268.013C149.956 269.592 137.402 269.262 133.575 269.122C129.747 268.983 125.065 265.733 125.065 265.733C125.065 265.733 120.271 266.739 119.355 263.131C118.438 259.523 121.704 256.728 121.704 256.728L131.659 256.952Z" fill="white" stroke="#271F4B" stroke-width="1.35048" stroke-linecap="round" stroke-linejoin="round"/>
<path d="M26.915 261.793C28.5191 264.778 29.948 267.85 31.1948 270.994C32.7106 275.092 37.1763 276.226 35.2468 278.549C33.3172 280.871 28.3004 279.778 23.9856 274.909C19.6709 270.039 15.6833 268.321 15.4679 266.22C15.2525 264.12 18.5462 260.11 18.5462 260.11L26.915 261.793Z" fill="white" stroke="#271F4B" stroke-width="1.35048" stroke-linecap="round" stroke-linejoin="round"/>
<path d="M35.2469 278.549C32.3674 278.596 29.5496 277.746 27.2029 276.123C23.6289 273.465 20.4982 267.98 18.4233 266.669L16.34 265.349" stroke="#271F4B" stroke-width="0.67524" stroke-linecap="round" stroke-linejoin="round"/>
<path d="M148.543 267.631C148.543 267.631 137.27 267.006 132.635 266.649C128.001 266.292 126.427 263.269 124.977 263.024C123.527 262.779 120.305 261.819 120.305 261.819" stroke="#271F4B" stroke-width="0.67524" stroke-linecap="round" stroke-linejoin="round"/>
<path d="M402.01 197.189C402.01 197.189 413.589 209.057 412.248 226.267C410.908 243.477 392.689 253.259 392.689 253.259L367.967 210.769C367.967 210.769 378.965 199.174 370.257 185.481C370.247 185.441 389.429 186.913 402.01 197.189Z" fill="white" stroke="#271F4B" stroke-width="1.35048" stroke-linecap="round" stroke-linejoin="round"/>
<g style="mix-blend-mode:multiply" opacity="0.5">
<path d="M402.01 197.189C402.01 197.189 413.589 209.057 412.248 226.267C410.908 243.477 392.689 253.259 392.689 253.259L367.967 210.769C367.967 210.769 378.965 199.174 370.257 185.481C370.247 185.441 389.429 186.913 402.01 197.189Z" fill="#6366F1"/>
</g>
<path d="M302.207 169.398C302.207 169.398 316.557 169.188 321.471 171.246C326.384 173.304 358.468 193.533 377.401 217.941C383.828 226.222 386.237 230.859 387.143 233.119C387.739 234.609 388.414 236.067 389.167 237.487C391.334 241.595 395.004 250.086 394.195 259.118C393.049 271.758 386.071 284.348 357.388 290.844C328.705 297.339 316.789 276.784 315.668 267.838C315.668 267.838 245.577 275.914 202.131 282.677C158.686 289.44 144.056 287.41 129.691 293.689C115.326 299.968 111.91 303.793 105.763 304.161C99.6158 304.53 80.9566 285.933 80.2602 280.331C79.5639 274.73 85.1409 266.478 87.0085 265.872C88.8761 265.265 110.277 231.234 110.277 231.234C110.277 231.234 111.019 224.704 120.798 218.978C130.578 213.252 179.743 196.326 206.652 187.776C233.56 179.226 288.286 169.946 302.207 169.398Z" fill="white" stroke="#271F4B" stroke-width="1.35048" stroke-linecap="round" stroke-linejoin="round"/>
<path d="M82.5639 271.249C88.5372 267.961 94.8562 265.313 101.411 263.351L182.858 237.652L290.684 214.365C290.684 214.365 335.529 205.231 356.093 213.836C370.726 219.975 386.343 241.46 394.141 253.354C394.337 255.261 394.352 257.183 394.185 259.095C393.04 271.735 386.062 284.325 357.379 290.82C328.696 297.316 316.78 276.761 315.658 267.815C315.658 267.815 245.568 275.89 202.122 282.654C158.676 289.417 144.047 287.386 129.682 293.666C115.317 299.945 111.901 303.769 105.754 304.138C99.6065 304.506 80.9473 285.909 80.2509 280.308C79.8507 277.526 81.0634 274.077 82.5639 271.249Z" fill="#312E81"/>
<path d="M387.008 242.16C387.008 242.16 364.852 210.74 344.083 209.443C323.315 208.145 258.061 220.583 258.061 220.583" stroke="#271F4B" stroke-width="1.35048" stroke-linecap="round" stroke-linejoin="round"/>
<path d="M251.276 222.138C251.276 222.138 211.027 229.648 158.558 245.078C106.09 260.509 84.9732 268.738 82.1863 271.345" stroke="#271F4B" stroke-width="1.35048" stroke-linecap="round" stroke-linejoin="round"/>
<path d="M210.506 195.838C210.506 195.838 124.811 221.623 119.43 224.052C116.268 225.445 113.532 227.617 111.49 230.354" fill="white"/>
<path d="M210.506 195.838C210.506 195.838 124.811 221.623 119.43 224.052C116.268 225.445 113.532 227.617 111.49 230.354" stroke="#271F4B" stroke-width="1.35048" stroke-linecap="round" stroke-linejoin="round"/>
<path d="M318.214 173.152L341.825 203.65C341.825 203.65 310.448 204.403 228.228 221.148L225.029 192.368C225.029 192.368 264.493 178.516 280.952 176.53C297.411 174.545 318.214 173.152 318.214 173.152Z" fill="#271F4B" stroke="#271F4B" stroke-width="1.35048" stroke-linecap="round" stroke-linejoin="round"/>
<path d="M341.444 203.667C339.748 203.742 332.33 204.072 317.766 205.886L332.587 191.741L333.665 193.129L341.444 203.667Z" fill="white" stroke="#271F4B" stroke-width="1.35048" stroke-linecap="round" stroke-linejoin="round"/>
<path d="M318.213 173.152L322.708 178.957L287.298 210.263C277.989 211.764 267.354 213.601 255.298 215.859C251.018 216.525 246.569 217.236 241.952 217.992L290.863 175.431C304.715 174.046 318.213 173.152 318.213 173.152Z" fill="white" stroke="#271F4B" stroke-width="1.35048" stroke-linecap="round" stroke-linejoin="round"/>
<path d="M223.822 198.491L224.872 215.531C220.545 215.501 213.807 215.944 209.056 218.614C208.341 212.798 208.991 206.897 210.955 201.355L223.822 198.491Z" fill="white" stroke="#271F4B" stroke-width="1.35048" stroke-miterlimit="10"/>
<path d="M211.686 199.499C212.527 197.57 213.55 195.721 214.742 193.976L223.41 191.79L223.737 197.138L211.686 199.499Z" fill="white" stroke="#271F4B" stroke-width="1.35048" stroke-miterlimit="10"/>
<path d="M225.018 217.888L225.31 222.635L210.518 225.537C209.97 223.854 209.564 222.129 209.305 220.38C211.973 219.127 216.96 217.532 225.018 217.888Z" fill="white" stroke="#271F4B" stroke-width="1.35048" stroke-miterlimit="10"/>
<path d="M190.297 201.441C190.297 201.441 198.526 199.068 199.95 199.092C201.374 199.116 201.868 201.434 201.868 201.434L199.145 207.306C199.145 207.306 199.666 208.235 195.391 209.742C191.116 211.249 187.346 211.686 186.835 211.17C186.324 210.653 186.375 209.048 185.998 207.708C185.621 206.369 188.3 201.688 190.297 201.441Z" fill="white" stroke="#271F4B" stroke-width="1.35048" stroke-linecap="round" stroke-linejoin="round"/>
<path d="M185.284 211.754C185.284 211.754 193.446 208.789 194.87 208.813C196.294 208.837 197.857 211.623 197.857 211.623C197.857 211.623 197.129 218.835 196.226 219.74C195.323 220.644 186.293 223.109 184.894 223.282C183.495 223.455 182.874 221.746 182.658 219.986C182.441 218.227 183.732 212.331 185.284 211.754Z" fill="white" stroke="#271F4B" stroke-width="1.35048" stroke-linecap="round" stroke-linejoin="round"/>
<path d="M182.644 223.16C182.644 223.16 193.006 219.93 194.001 219.807C194.995 219.683 196.55 222.271 196.414 222.872C196.278 223.473 196.741 228.776 196.741 228.776L180.587 232.667L181.492 225.242C181.492 225.242 181.444 224.887 182.644 223.16Z" fill="white" stroke="#271F4B" stroke-width="1.35048" stroke-linecap="round" stroke-linejoin="round"/>
<path d="M182.49 203.97L183.743 205.993L180.496 212.523C180.496 212.523 180.444 213.723 177.113 214.712C173.782 215.701 167.687 217.242 167.687 217.242C167.687 217.242 165.845 215.483 166.149 214.653C166.454 213.822 169.904 207.663 171.446 206.691C172.989 205.718 181.984 203.009 182.49 203.97Z" fill="white" stroke="#271F4B" stroke-width="1.35048" stroke-linecap="round" stroke-linejoin="round"/>
<path d="M177.13 214.711C177.7 215.517 178.153 216.397 178.474 217.325C178.566 218.114 177.746 224.544 176.118 226.156C174.49 227.767 164.736 229.311 163.337 229.477C161.937 229.642 161.469 227.529 161.278 225.967C161.087 224.405 163.026 218.821 164.527 217.85C166.029 216.879 174.857 214.432 174.857 214.432C174.857 214.432 176.382 213.618 177.13 214.711Z" fill="white" stroke="#271F4B" stroke-width="1.35048" stroke-linecap="round" stroke-linejoin="round"/>
<path d="M160.655 229.707C160.942 229.451 161.275 229.248 161.637 229.108C163.851 228.256 172.154 225.15 173.639 225.83C175.365 226.61 176.028 228.706 176.05 230.482C176.039 231.755 175.927 233.025 175.715 234.281L158.524 239.749L159.673 231.575C159.772 230.858 160.125 230.197 160.672 229.706L160.655 229.707Z" fill="white" stroke="#271F4B" stroke-width="1.35048" stroke-linecap="round" stroke-linejoin="round"/>
<path d="M164.683 209.284L165.293 212.58C165.293 212.58 163.675 217.523 161.752 218.354C159.83 219.185 150.792 221.658 150.193 221.724C149.594 221.79 148.132 219.801 148.184 218.6C148.236 217.4 151.432 212.11 153.353 211.231C155.274 210.352 163.183 208.66 163.183 208.66C163.183 208.66 164.963 208.264 164.683 209.284Z" fill="white" stroke="#271F4B" stroke-width="1.35048" stroke-linecap="round" stroke-linejoin="round"/>
<path d="M157.58 219.054L159.511 223.173C159.511 223.173 157.536 230.146 157.257 231.166C156.977 232.186 144.373 235.301 143.725 234.981C143.076 234.66 141.602 234.242 141.666 231.463C141.729 228.684 145.347 221.915 146.916 221.528C148.484 221.141 155.144 219.147 155.751 219.072C156.358 218.998 157.278 218.298 157.58 219.054Z" fill="white" stroke="#271F4B" stroke-width="1.35048" stroke-linecap="round" stroke-linejoin="round"/>
<path d="M153.328 232.238C153.328 232.238 155.664 236.315 155.307 238.338C155.054 239.669 154.674 240.974 154.171 242.236L137.14 247.261C137.14 247.261 138.862 239.926 139.145 237.51C139.428 235.093 143.753 233.791 147.26 232.572C150.768 231.353 153.583 231.021 153.328 232.238Z" fill="white" stroke="#271F4B" stroke-width="1.35048" stroke-linecap="round" stroke-linejoin="round"/>
<path d="M146.776 213.824L147.192 217.138C147.192 217.138 143.247 222.961 142.166 224.08C141.086 225.199 132.015 227.284 131.189 227.186C130.363 227.088 129.92 225.164 130.175 223.947C130.43 222.73 134.644 217.466 136.356 216.668C138.069 215.87 145.286 213.407 145.286 213.407C145.286 213.407 147.233 212.583 146.776 213.824Z" fill="white" stroke="#271F4B" stroke-width="1.35048" stroke-linecap="round" stroke-linejoin="round"/>
<path d="M139.393 224.616C139.393 224.616 140.751 229.006 140.202 229.466C139.654 229.927 137.427 236.531 136.094 237.288C134.762 238.046 124.94 240.616 123.693 240.37C122.446 240.124 122.155 237.781 122.714 235.734C123.274 233.686 127.058 228.282 129.361 227.212C131.01 226.448 137.564 224.634 137.564 224.634C137.564 224.634 138.872 223.687 139.393 224.616Z" fill="white" stroke="#271F4B" stroke-width="1.35048" stroke-linecap="round" stroke-linejoin="round"/>
<path d="M125.019 239.653C125.019 239.653 131.006 237.15 132.051 237.421C133.096 237.691 134.514 240.881 134.589 241.472C134.664 242.064 132.706 249.219 132.706 249.219L116.727 254.515C116.727 254.515 116.71 254.119 116.596 251.562C116.482 249.005 120.076 242.039 120.801 241.356C121.527 240.673 125.019 239.653 125.019 239.653Z" fill="white" stroke="#271F4B" stroke-width="1.35048" stroke-linecap="round" stroke-linejoin="round"/>
<path d="M128.26 220.018C128.604 221.022 128.87 222.049 129.056 223.092C129.197 224.26 125.837 228.233 124.158 229.426C122.479 230.619 114.073 233.214 113.474 233.288C112.876 233.362 111.235 231.579 112.216 229.671C113.811 227.158 115.879 224.961 118.311 223.197C120.216 221.978 126.238 220.06 128.26 220.018Z" fill="#6366F1" stroke="#271F4B" stroke-width="1.35048" stroke-linecap="round" stroke-linejoin="round"/>
<path d="M120.076 230.901C120.472 231.688 120.781 232.515 120.999 233.366C121.091 234.156 117.422 240.53 116.544 241.624C115.666 242.718 107.008 244.952 106.013 245.075C105.018 245.199 102.76 245.069 103.447 242.222C104.133 239.376 106.366 234.739 108.702 233.866C111.037 232.992 115.304 231.486 117.252 230.852C119.2 230.218 120.076 230.901 120.076 230.901Z" fill="#6366F1" stroke="#271F4B" stroke-width="1.35048" stroke-linecap="round" stroke-linejoin="round"/>
<path d="M112.067 243.157C113.037 244.512 113.712 246.048 114.048 247.67C114.315 249.815 112.755 255.152 111.092 256.527C109.43 257.902 97.9041 261.484 97.9041 261.484C97.9041 261.484 96.6705 258.065 96.2022 255.944C95.7338 253.823 101.358 246.806 101.857 245.959C102.356 245.112 110.643 243.133 112.067 243.157Z" fill="#6366F1" stroke="#271F4B" stroke-width="1.35048" stroke-linecap="round" stroke-linejoin="round"/>
<path d="M91.8327 289.518C95.9483 288.264 102.41 287.104 104.668 283.394C106.926 279.684 109.436 274.86 133.934 271.907C158.433 268.953 323.29 238.854 340.179 237.222C357.069 235.59 371.108 254.71 371.108 254.71C371.108 254.71 381.395 253.087 387.709 250.799C389.716 250.067 391.544 248.931 393.074 247.467C394.114 251.257 394.49 255.194 394.186 259.11C393.04 271.75 386.062 284.34 357.379 290.835C328.696 297.331 316.78 276.776 315.659 267.83C315.659 267.83 245.568 275.905 202.122 282.669C158.677 289.432 144.047 287.401 129.682 293.681C115.317 299.96 111.901 303.784 105.754 304.153C102.023 304.374 93.7313 297.651 87.6003 291.07C89.1736 290.429 90.7096 289.861 91.8327 289.518Z" fill="#271F4B" stroke="#271F4B" stroke-width="1.35048" stroke-linecap="round" stroke-linejoin="round"/>
<path d="M374.002 259.262C374.002 259.262 379.609 269.96 381.883 275.745" stroke="white" stroke-width="1.01286" stroke-linecap="round" stroke-linejoin="round"/>
<path d="M366.984 255.941C366.984 255.941 337.689 264.026 319.411 266.989" stroke="white" stroke-width="1.01286" stroke-linecap="round" stroke-linejoin="round"/>
<path d="M341.825 203.65C341.825 203.65 359.659 190.886 374.589 189.088C389.519 187.29 402.01 197.189 402.01 197.189C402.01 197.189 363.717 167.32 353.531 166.655C343.346 165.99 330.054 165.319 318.215 173.192L341.825 203.65Z" fill="white" stroke="#271F4B" stroke-width="1.35048" stroke-linecap="round" stroke-linejoin="round"/>
</svg>
