<svg fill="#000000" xmlns="http://www.w3.org/2000/svg" viewBox="-10 -10 120.00 120.00" xml:space="preserve" stroke="#000000" stroke-width="5"><g id="SVGRepo_bgCarrier" stroke-width="0"></g><g id="SVGRepo_tracerCarrier" stroke-linecap="round" stroke-linejoin="round"></g><g id="SVGRepo_iconCarrier"> <g> <g> <path opacity="0.5" d="M36.7,52.4C35,49.7,34,46.5,34,43c0-5.9,2.5-10.9,6.5-13.9C39,26.6,36.5,25,33,25c-5.8,0-9,4.6-9,10 c0,2.9,1,5.3,2.9,7.1c1.1,1,2,2.3,2,3.7c0,1.4-0.5,2.6-3.8,4c-4.7,2.1-9,4.8-9.1,9.2c0,2.9,1.9,5,4.6,5h4.3c0.7,0,1.4-0.4,1.7-1 c2.1-3.8,6-6.2,9.3-7.8C37,54.7,37.4,53.4,36.7,52.4z"></path> </g> <g> <path opacity="0.5" d="M74.9,49.8c-3.3-1.4-3.8-2.7-3.8-4c0-1.4,0.9-2.7,2-3.7C75,40.3,76,37.9,76,35c0-5.4-3.2-10-9-10 c-3.5,0-6,1.6-7.5,4.1c4,3,6.5,7.9,6.5,13.9c0,3.5-0.9,6.7-2.7,9.4c-0.7,1-0.3,2.3,0.8,2.9c3.3,1.6,7.2,4,9.3,7.8 c0.3,0.6,1,1,1.7,1h4.3c2.7,0,4.6-2.1,4.6-5C83.9,54.7,79.6,51.9,74.9,49.8z"></path> </g> <g> <path opacity="0.5" d="M58.7,59.4c-3.6-1.5-4.1-2.9-4.1-4.4c0-1.5,1-3,2.2-4.1c2.1-1.9,3.3-4.7,3.3-7.9c0-5.9-3.6-11-10-11 c-6.4,0-10,5.1-10,11c0,3.2,1.2,5.9,3.3,7.9c1.2,1.1,2.2,2.6,2.2,4.1c0,1.5-0.6,2.9-4.1,4.4C36.1,61.6,31.1,64.2,31,69 c0,3.2,2.3,6,5.3,6H50h13.7c3,0,5.3-2.8,5.3-6C68.9,64.2,63.9,61.6,58.7,59.4z"></path> </g> </g> </g></svg>