<svg xmlns="http://www.w3.org/2000/svg" xmlns:xlink="http://www.w3.org/1999/xlink" viewBox="0,0,256,256" width="150px" height="150px"><g fill="#1e1b4b" fill-rule="nonzero" stroke="none" stroke-width="1" stroke-linecap="butt" stroke-linejoin="miter" stroke-miterlimit="10" stroke-dasharray="" stroke-dashoffset="0" font-family="none" font-weight="none" font-size="none" text-anchor="none" style="mix-blend-mode: normal"><g transform="scale(5.12,5.12)"><path d="M25,3c-6.63672,0 -12,5.36328 -12,12v5h-4c-1.64453,0 -3,1.35547 -3,3v24c0,1.64453 1.35547,3 3,3h32c1.64453,0 3,-1.35547 3,-3v-24c0,-1.64453 -1.35547,-3 -3,-3h-4v-5c0,-6.63672 -5.36328,-12 -12,-12zM25,5c5.56641,0 10,4.43359 10,10v5h-20v-5c0,-5.56641 4.43359,-10 10,-10zM9,22h32c0.55469,0 1,0.44531 1,1v24c0,0.55469 -0.44531,1 -1,1h-32c-0.55469,0 -1,-0.44531 -1,-1v-24c0,-0.55469 0.44531,-1 1,-1zM25,30c-1.69922,0 -3,1.30078 -3,3c0,0.89844 0.39844,1.6875 1,2.1875v2.8125c0,1.10156 0.89844,2 2,2c1.10156,0 2,-0.89844 2,-2v-2.8125c0.60156,-0.5 1,-1.28906 1,-2.1875c0,-1.69922 -1.30078,-3 -3,-3z"></path></g></g></svg>