<svg width="600" height="600" viewBox="0 0 600 600" fill="none" xmlns="http://www.w3.org/2000/svg">
<rect width="600" height="600" fill="#1E1B4B"/>
<path d="M315.042 294.167L324.168 288.691C326.977 287.006 328.381 286.163 329.537 286.271C330.545 286.364 331.464 286.885 332.063 287.701C332.75 288.636 332.75 290.274 332.75 293.55V308.95C332.75 312.226 332.75 313.864 332.063 314.799C331.464 315.615 330.545 316.136 329.537 316.229C328.381 316.337 326.977 315.495 324.168 313.809L315.042 308.333M280.333 322.5H303.708C307.675 322.5 309.659 322.5 311.174 321.728C312.507 321.049 313.591 319.965 314.27 318.633C315.042 317.117 315.042 315.134 315.042 311.167V291.333C315.042 287.366 315.042 285.383 314.27 283.868C313.591 282.535 312.507 281.451 311.174 280.772C309.659 280 307.675 280 303.708 280H280.333C276.366 280 274.383 280 272.868 280.772C271.535 281.451 270.451 282.535 269.772 283.868C269 285.383 269 287.366 269 291.333V311.167C269 315.134 269 317.117 269.772 318.633C270.451 319.965 271.535 321.049 272.868 321.728C274.383 322.5 276.366 322.5 280.333 322.5Z" stroke="#FEFEFE" stroke-opacity="0.75" stroke-width="2" stroke-linecap="round" stroke-linejoin="round"/>
</svg>
