<svg width="600" height="200" viewBox="0 0 600 200" fill="none" xmlns="http://www.w3.org/2000/svg">
<rect width="600" height="200" fill="#1E1B4B"/>
<path d="M307.792 112.274L302.787 107.109C300.373 104.617 299.165 103.371 297.78 102.915C296.561 102.514 295.251 102.529 294.041 102.957C292.666 103.444 291.484 104.717 289.122 107.263L277.132 119.589M307.792 112.274L308.816 111.217C311.234 108.722 312.442 107.474 313.83 107.019C315.049 106.618 316.36 106.634 317.571 107.063C318.947 107.552 320.128 108.828 322.49 111.381L325 114.01M307.792 112.274L319.825 124.823M277.132 119.589C277.225 120.376 277.384 120.998 277.654 121.549C278.229 122.724 279.147 123.68 280.276 124.278C281.56 124.959 283.24 124.959 286.6 124.959H315.4C317.363 124.959 318.753 124.959 319.825 124.823M277.132 119.589C277 118.471 277 117.02 277 114.967V84.9918C277 81.4944 277 79.7456 277.654 78.4098C278.229 77.2347 279.147 76.2794 280.276 75.6807C281.56 75 283.24 75 286.6 75H315.4C318.76 75 320.441 75 321.724 75.6807C322.853 76.2794 323.771 77.2347 324.346 78.4098C325 79.7456 325 81.4944 325 84.9918V114.01M325 114.01V114.967C325 118.465 325 120.214 324.346 121.549C323.771 122.724 322.853 123.68 321.724 124.278C321.19 124.562 320.588 124.727 319.825 124.823M316 90.6119C316 94.061 313.314 96.8568 310 96.8568C306.686 96.8568 304 94.061 304 90.6119C304 87.1629 306.686 84.367 310 84.367C313.314 84.367 316 87.1629 316 90.6119Z" stroke="white" stroke-opacity="0.75" stroke-width="2" stroke-linecap="round" stroke-linejoin="round"/>
</svg>
